/* XPM */
static char *result[] = {
/* columns rows colors chars-per-pixel */
"50 50 168 2 ",
"   c #030002",
".  c #0B0102",
"X  c #150100",
"o  c #1A0400",
"O  c #1A0B04",
"+  c #170C0C",
"@  c #1A0D0A",
"#  c #1E120E",
"$  c #1F1413",
"%  c #291200",
"&  c #2E1D05",
"*  c #21140E",
"=  c #2C1D0C",
"-  c #3F1A00",
";  c #221612",
":  c #251814",
">  c #2A1D16",
",  c #241C1B",
"<  c #2B1E18",
"1  c #36240F",
"2  c #2E2017",
"3  c #322313",
"4  c #31251D",
"5  c #3C2B1E",
"6  c #0E152E",
"7  c #181B2C",
"8  c #131A32",
"9  c #281F21",
"0  c #1D2132",
"q  c #292323",
"w  c #322723",
"e  c #342822",
"r  c #342B2E",
"t  c #3B2B21",
"y  c #2B2A37",
"u  c #222739",
"i  c #252A3C",
"p  c #282D3F",
"a  c #262634",
"s  c #352F34",
"d  c #34323D",
"f  c #3B363E",
"g  c #462600",
"h  c #452C06",
"j  c #492E05",
"k  c #462D0A",
"l  c #492F0A",
"z  c #4B310C",
"x  c #472F13",
"c  c #482E16",
"v  c #4A3113",
"b  c #4A321B",
"n  c #46301C",
"m  c #5D3D13",
"M  c #603F12",
"N  c #402D21",
"B  c #463325",
"V  c #4A3526",
"C  c #4B3729",
"Z  c #4D382B",
"A  c #473429",
"S  c #513D2D",
"D  c #4D3E3C",
"F  c #664315",
"G  c #64431A",
"H  c #68461B",
"J  c #684416",
"K  c #58422F",
"L  c #63472B",
"P  c #634A35",
"I  c #6C4E30",
"U  c #664E39",
"Y  c #684E38",
"T  c #6E5134",
"R  c #6F543C",
"E  c #71563D",
"W  c #232A42",
"Q  c #2C3245",
"!  c #2F3549",
"~  c #31374A",
"^  c #393A4B",
"/  c #3B3D51",
"(  c #363E58",
")  c #453F47",
"_  c #3F455B",
"`  c #3E4255",
"'  c #3D4661",
"]  c #4D4042",
"[  c #514243",
"{  c #53484F",
"}  c #41465B",
"|  c #43495E",
" . c #524D55",
".. c #544E5B",
"X. c #57525D",
"o. c #59555D",
"O. c #59585C",
"+. c #535356",
"@. c #715741",
"#. c #745A43",
"$. c #6D5C54",
"%. c #7A695D",
"&. c #726157",
"*. c #434A63",
"=. c #4A536D",
"-. c #595562",
";. c #5E5961",
":. c #4B5570",
">. c #5A5D74",
",. c #565E79",
"<. c #595F79",
"1. c #555D77",
"2. c #5C637C",
"3. c #6B6B6F",
"4. c #706C6F",
"5. c #6D6D72",
"6. c #62647B",
"7. c #716F72",
"8. c #717176",
"9. c #797577",
"0. c #74757A",
"q. c #7B7778",
"w. c #77797E",
"e. c #797A7F",
"r. c #817978",
"t. c #8C837F",
"y. c #5D6684",
"u. c #5F6A87",
"i. c #626781",
"p. c #626A86",
"a. c #636D8B",
"s. c #68708D",
"d. c #777B87",
"f. c #7C7D82",
"g. c #777B88",
"h. c #787C89",
"j. c #737680",
"k. c #626E91",
"l. c #657193",
"z. c #6A7595",
"x. c #6B7798",
"c. c #6D7899",
"v. c #747B92",
"b. c #7E8085",
"n. c #818287",
"m. c #8D8480",
"M. c #838489",
"N. c #8B8C94",
"B. c #93939A",
"V. c #808AA3",
"C. c #989DAB",
"Z. c #A09FA3",
"A. c #9FA6B5",
"S. c #A1A1A4",
"D. c #A0A4AE",
"F. c #A0A7B6",
"G. c #A7ACB5",
"H. c #A3AABA",
"J. c #A8AEBA",
"K. c #ADB1B9",
"L. c #B2B5BB",
"P. c #ACB4C1",
"I. c #B7BDC6",
"U. c #B8BEC7",
"Y. c #B9BFC8",
"T. c #BBC2CB",
"R. c #C0C7CF",
"E. c None",
/* pixels */
"E.E.E.E.E.E.E.E.E.E.E.E.E.E.E.E.E.E.E.E.E.E.E.E.E.E.E.E.E.E.E.E.E.E.E.E.E.E.E.E.E.E.E.E.E.E.E.E.E.E.",
"E.E.E.E.E.E.E.E.E.E.E.E.E.E.E.E.E.E.E.E.E.E.E.E.E.E.E.E.E.E.E.E.E.E.E.E.E.E.E.E.E.E.E.E.E.E.E.E.E.E.",
"E.E.E.E.E.E.E.E.E.# # # # # # $ # # # # # # * @ # # # # # # # # # # # ; # # # $ # # # # E.E.E.E.E.E.",
"E.E.E.E.E.E.E.E.# ; # # * $ # # # $ # * # * # * $ # * # # ; # # * # # * $ # * # * $ * # E.E.E.E.E.E.",
"E.E.E.E.E.E.E.E.# * @ @ O O O + O # $ @ $ # # # @ # # * # @ # # # @ * O @ O @ O O # # @ E.E.E.E.E.E.",
"E.E.E.E.E.E.* + t A h >.a.a.a.a.a. .k A B B B B B B B B B B B B B B B 2.a.p.a.a.u.D n B : # * E.E.E.",
"E.E.E.E.E.* ; + N S j i.c.c.c.x.c.-.z Z A Z Z Z C C Z C Z Z Z V Z Z V s.c.c.c.c.x.[ b S > * # E.E.E.",
"E.E.E.E.E.E.* + t Z j <.l.l.l.k.l...k Z V V V V C C V V V B Z V V V V u.l.l.k.l.k.) b Z * # # E.E.E.",
"E.E.E.E.E.E.; . S @.M B.P.P.J.J.P.r.M Y Y Y Y Y I Y Y Y Y Y Y Y U Y P D.K.J.J.J.K.&.L U > @ # E.E.E.",
"E.E.E.E.E.E.;   K #.J S.T.Y.T.U.R.t.L @.E R E E E E E E E E E E E R E L.T.T.T.T.T.%.T R 2 # $ E.E.E.",
"E.E.E.E.E.E.: . K #.J Z.T.I.I.I.R.t.H @.Y E R E E E Y E R R Y E R R R K.T.I.I.U.I.%.I R 2 @ * E.E.E.",
"E.E.E.E.E.E.:   K #.J S.T.I.U.I.Y.t.H E E E R R E R E E E R E E R R T K.T.I.I.I.I.%.I R 2 + # E.E.E.",
"E.E.E.E.E.E.; . K #.F S.T.U.U.I.R.m.H @.E T E R R R R R Y E R E R R U K.T.I.U.U.I.%.I R 2 + # E.E.E.",
"E.E.E.E.E.E.;   K #.F S.T.U.U.U.Y.m.H @.R R E R E R R E E E R R R @.T K.T.I.U.U.I.%.I R 2 @ # E.E.E.",
"E.E.E.E.E.E.;   K #.F Z.T.U.U.U.Y.m.H @.R R R R R R R R R R R R R R T K.T.I.U.U.I.%.I R 2 + # E.E.E.",
"E.E.E.E.E.E.; . K #.F Z.T.U.U.U.T.t.H @.R R E R R R R R R E R R R @.T K.T.I.I.I.I.%.I R 2 # # E.E.E.",
"E.E.E.E.E.E.: . K #.J Z.T.I.U.I.T.m.H @.E E E E E E R R R E E E R R R K.T.I.U.U.I.%.I R 2 @ $ E.E.E.",
"E.E.E.E.E.E.:   K #.J Z.T.I.U.I.T.m.H @.Y E E Y R E R R E Y R E E R I K.T.I.U.U.I.%.I R 2 + # E.E.E.",
"E.E.E.E.E.E.; . K #.J Z.T.U.Y.I.Y.m.H @.E E Y @.R E R E R E R R E R T K.Y.I.U.U.I.%.I R 2 @ # E.E.E.",
"E.E.E.E.E.E.:   K #.H S.R.Y.T.Y.R.m.H #.E E @.@.E E E E E E E E E E E L.T.T.T.T.T.%.I @.2 @ * E.E.E.",
"E.E.E.E.E.E.; . S Y m N.H.F.F.F.H.q.M U P P P P P P P P L U P P P P P C.F.A.F.F.A.$.L P > @ # E.E.E.",
"E.E.E.E.E.E.; + t Z x <.k.a.k.k.k...c Z Z Z Z Z Z Z Z Z Z Z Z Z Z A V y.k.k.k.k.a.) B Z ; * # E.E.E.",
"E.E.E.E.E.E.; + k b g 6.c.x.x.z.c.X.g b g - - - - - - - - - - - j v j a.c.x.z.z.z.D j z * * * E.E.E.",
"E.E.E.E.E.E.; X ) X. .i.x.z.l.z.c.>.....3.q.9.9.q.j.9.9.9.9.0.q.;...X.s.z.z.z.z.z.-.....< @ * E.E.E.",
"E.E.E.E.E.E., . 1.c.c.z.l.x.z.z.z.z.x.l.J.R.T.T.Y.T.T.T.Y.T.T.R.V.l.c.z.z.z.z.z.z.z.z.z.y o $ E.E.E.",
"E.E.E.E.E.E., . >.c.x.x.z.x.c.c.x.x.x.l.J.T.Y.Y.Y.T.Y.Y.T.Y.Y.Y.V.l.c.x.x.z.x.x.c.z.c.z.y O $ E.E.E.",
"E.E.E.E.E.E.$ . =.s.p.a.a.a.a.a.a.a.a.y.C.P.J.G.J.J.G.G.G.J.J.J.h.y.a.a.a.a.a.k.a.a.i.p.y O $ E.E.E.",
"E.E.E.E.E.E.# # = = & / *.*.*.*.*.d % & / ' *.W 6 8 8 8 6 ( ' *.r & & } *.*.*.*.*.w & = * # # E.E.E.",
"E.E.E.E.E.E.; # > e = / *.} *.*.*.f 3 3 ` *.*.~ u p p p i } *.*.s 3 4 } *.} *.*.*.r 2 4 ; # # E.E.E.",
"E.E.E.E.E., * @ > w & } :.=.=.=.=.^ 1 3 | :.:.~ a p i p u *.:.=.f 3 4 *.=.=.=.=.=.r 2 4 # # # E.E.E.",
"E.E.E.b.M.O.  $ > e % <.x.z.z.l.x.-.v b 6.x.z.*.0 Q i W u p.x.z.{ b C a.x.z.z.z.z.f & 4 * O 9 f.n.f.",
"E.E.E.M.M.O.  ; > w % <.x.z.z.z.x.X.v v i.c.x.} 7 u u i 7 p.c.z.{ v C a.z.z.z.z.s.^ & 4 $ O q f.M.n.",
"E.E.E.M.n.O.  $ 2 e % 1.c.z.z.l.c.X.x b 6.c.z.*.p ~ ! ! p u.c.z.{ b S p.z.v.z.z.z.f = 4 $ O 4 w.b.f.",
"E.E.E.M.b.O.  $ 2 e % 1.c.z.z.z.c.X.v b i.c.z.l.z.s.l.s.s.z.z.z.{ b V a.z.z.z.z.z.f & 4 : O q w.f.f.",
"E.E.E.M.b.O.  , , e % 2.x.z.z.z.c.X.v b i.c.z.z.z.z.z.z.z.z.z.c.{ b S p.z.z.z.z.l.f & 4 $ O q w.f.f.",
"E.E.E.n.b.O.  $ 2 4 % 2.x.l.z.z.c.X.c b i.c.l.z.z.z.z.z.z.z.z.z.{ v V a.z.z.z.z.z.f & 4 $ O q w.b.f.",
"E.E.E.M.b.O.  $ > e % <.c.z.z.z.x.-.l Z K [ [ [ [ [ [ [ [ [ ] [ K C S a.z.z.z.z.z.f & 4 $ O q w.f.f.",
"E.E.E.M.n.O.  ; < e % <.c.z.z.z.x.X.l Z Z b b b b b b b V b b b C C b a.z.z.z.z.z.^ & 4 $ O q w.f.f.",
"E.E.E.M.n.O.  @ > e % <.x.z.z.s.c.X.l Z Z Z Z C Z Z Z C S S C S C V V a.z.z.z.z.z.f & 4 @ . 2 w.f.f.",
"E.E.E.M.f.0.8.0. .X o >.c.z.z.z.c.X.l Z A Z C C Z C C C C C V V C C V a.c.z.z.z.l.s O q 5.8.8.b.f.f.",
"E.E.E.M.f.f.f.M.O.. X 2.z.z.z.l.c.X.v Z Z Z Z Z Z Z Z Z Z Z Z Z Z Z V a.z.z.z.z.z.d X q f.b.b.f.f.f.",
"E.E.E.n.f.f.f.b.+.    ,.c.z.z.z.c...g B n b n n n n n b n n b n b b c a.x.z.z.z.z.a   $ 0.b.f.f.f.f.",
"E.E.E.E.E.E.M.f.8.3.3.0.g.d.g.d.h.0.7.5.7.7.7.7.4.7.7.7.4.7.8.7.7.7.7.d.g.g.g.g.g.5.3.3.f.n.f.E.E.E.",
"E.E.E.E.E.E.M.f.f.b.b.b.f.f.f.f.f.f.f.f.b.b.b.b.b.b.b.n.f.n.b.f.b.b.f.f.f.f.f.f.b.b.b.b.f.b.b.E.E.E.",
"E.E.E.E.E.E.M.b.b.f.f.f.f.f.f.f.f.f.f.f.f.e.f.f.e.e.b.e.f.f.f.e.f.e.f.f.f.f.f.f.f.f.f.f.f.M.b.E.E.E.",
"E.E.E.E.E.E.E.E.E.E.E.n.n.f.f.f.f.f.f.f.f.f.f.f.b.f.e.b.f.f.f.f.f.f.f.f.f.f.f.f.b.E.E.E.E.E.E.E.E.E.",
"E.E.E.E.E.E.E.E.E.E.E.E.M.f.f.f.f.f.f.f.f.f.f.f.f.f.b.r.f.f.f.f.f.f.f.f.f.f.f.M.b.E.E.E.E.E.E.E.E.E.",
"E.E.E.E.E.E.E.E.E.E.E.E.N.b.n.n.n.n.M.b.M.f.M.n.n.n.M.M.n.n.n.M.n.n.n.n.n.M.b.M.b.E.E.E.E.E.E.E.E.E.",
"E.E.E.E.E.E.E.E.E.E.E.E.E.E.E.E.E.E.E.E.E.E.E.E.E.E.E.E.E.E.E.E.E.E.E.E.E.E.E.E.E.E.E.E.E.E.E.E.E.E.",
"E.E.E.E.E.E.E.E.E.E.E.E.E.E.E.E.E.E.E.E.E.E.E.E.E.E.E.E.E.E.E.E.E.E.E.E.E.E.E.E.E.E.E.E.E.E.E.E.E.E."
};
