/* XPM */
static char *result[] = {
/* columns rows colors chars-per-pixel */
"50 50 84 1 ",
"  c #000000",
". c #0C0000",
"X c #020208",
"o c #00080B",
"O c #0A080E",
"+ c #140000",
"@ c #1C0000",
"# c #12070A",
"$ c #210406",
"% c #2E0201",
"& c #450202",
"* c #4C0302",
"= c #530303",
"- c #5C0403",
"; c #620403",
": c #6E0504",
"> c #600708",
", c #750404",
"< c #790303",
"1 c #840807",
"2 c #880906",
"3 c #8B0A09",
"4 c #9F0003",
"5 c #960708",
"6 c #9B0708",
"7 c #970A09",
"8 c #9A0909",
"9 c #9E110C",
"0 c #8F1C12",
"q c #911C11",
"w c #9B1D12",
"e c #A00000",
"r c #A20408",
"t c #AE0509",
"y c #A20B0A",
"u c #AD0B0A",
"i c #B40C0B",
"p c #B90D0B",
"a c #A4100D",
"s c #B3120F",
"d c #A01B11",
"f c #B31410",
"g c #93381E",
"h c #8F3D22",
"j c #913C21",
"k c #C40C0A",
"l c #C90E0C",
"z c #D40D0C",
"x c #DC0D0C",
"c c #E70006",
"v c #E90001",
"b c #E60A0A",
"n c #EB0A0A",
"m c #F20A0A",
"M c #E5140D",
"N c #E51911",
"B c #DF2217",
"V c #DB2F1A",
"C c #D3341D",
"Z c #C64E2B",
"A c #CC492E",
"S c #D2442A",
"D c #C9522E",
"F c #C66541",
"G c #C86640",
"H c #C76842",
"J c #BD914F",
"K c #C4944F",
"L c #C29451",
"P c #C69B53",
"I c #CC9B53",
"U c #D19C55",
"Y c #D09F59",
"T c #C8A45B",
"R c #D3A055",
"E c #D1A058",
"W c #D6C37C",
"Q c #E1C67E",
"! c #DFCE87",
"~ c #D6CC89",
"^ c #E5CC83",
"/ c #E6D38C",
"( c #ECD38C",
") c None",
/* pixels */
")X)                                          XOXXX",
"X  +@@@@@@@@@@@@@@@@@@@@@$@@@@@@@@@@@@@@@@@@@$#   ",
") .                                          Xo.  ",
" + 2pipiippppppppppppppppppppppppppppppppppppp- + ",
" $ imnmnnnmnnnnnnnbnmnbnnnnnnnnnnnnnnnmnnnbnnm1 @ ",
" @ inbbbbbbbbbbbbbbbbbbbbbbbbbbbbbbbbbbbbbbbbn< @ ",
" @ inbbbbbbbbbbbbbbbbbbbbbbbbbbbbbbbbbbbbbbbbn< @ ",
" @ inbbbbbbbbbbbbbbbbbbbbbbbbbbbbbbbbbbbbbbbbb< @ ",
" $ imbnbnnnnbnnnnnnbbnnbnbbnnnnnnnnnnnbnnbnbbn< @ ",
" + 3pspllkkkkklkkklkkkllklkkkkkkkkkkkkkkkklpsp; . ",
" + ,y87777667878557866776758784655774777665586= . ",
" + :686yy6567878rr67667768878786yy7768676yy88y= . ",
" + 1pia66ukkkkkp88ukkpkkkkkkkkpy6ypkkkkpy68uis- + ",
" $ inbf67knbnbnz78pnnnnnnnnbbnby6unnnnnni68xnn< @ ",
" $ unbf67knbbbnz37inbbbbbbbbbbb88ybbbbbbu6yxbn< @ ",
" @ unnf67knbbbbxpplbbbbbbbbbbbby8yMbbbbbu68xnn, + ",
" @ unbf67knbbbbnnbnbbbbbnbbbbnby6ubbbbbbu88zbn< @ ",
" $ unnf67knbbbbbbbbbbbbbbbnbbbb67ybbbbbbu87znb< @ ",
" $ umbf87knbbbbbbbbbbbnbbbbbbbbpppbbbbbbu67zbn< + ",
" @Xtnnf87knbbbbbbbbbbbbbbbbbbbbbbbbbbbbbu67znn< @ ",
" $ unbf87kMbnbbbbbbbbbbbbnbbbbbbbbbbbbbbu87xnn< + ",
" $ umbf87knbbbbbbbbbbbbbbbbbbbbbbbbbbbbbu67znb< @ ",
" $ unnf77knbbbbbbnbbbbbbbbbbbbbbbnNNNMMMu87znn, @ ",
" @ innf77knbbbbbbbbbnbbbbbbbbbbbbcvvvvvvu88znb<X+ ",
" @ unbf67knbbbbbbbnbbbbbbbbbbbnncBHHGDZZd67znb< @ ",
" $ umbf67knbbbbbbbbbbnbbbbbbbbbMvA~/!TPPj49xbn< @ ",
" $ unnf67knbbbbbbbbbbbbbbbbbbbbMvA^(^EUIj49xbn< + ",
" @ unbf67kbbbbbbbbbbbbbbbnbbbnbMvSWQQTUPg49xbn< @ ",
" $ unbf67kbbbbbbbbnbbnbbbbbbbbbbcVPUIUIPh49xbn< @ ",
" @ umnf67knbbbbbbbbbbbbbbbbbbbbMvCPRUUUEh49xbn< + ",
" $ unbf67knbbbbbbbbbbbbbbnbbbbbbvCJKKLLJge9xbn< @ ",
" @ inbf67knbnbnbbbbbbbbbbbbbnbbbbbwqqqqq8y7zbn< @ ",
" @ unnf67knbbbbbbbbbbbbbbbbbbbbbnbr444448y7znn,X+ ",
" $ inbf87knbbbbbxbbbbbbbbbbbbbbbbbayayayy87xbn, @ ",
" @ unnf67knbbbnz6ypnbbbbbbbbbbbbbbbbbbbbu68xbn< @ ",
" $ unnf67knbbbnz76pbbbbbbbbnbbnbbbbbbbbbu68znn< @ ",
" $ unbf66knbbbbz88pbbbbbbbbbbbbbbbbbbbbbu89zbn< + ",
" @ imbf65knbbbbz76ibbbbbbbbbbbbbbbbbbbbbu87zbn< @ ",
" @ unnf67kbbbbbx86pbbbbbbbnbbbbbbbbbbbbbu87znb< + ",
" $ unbf67knbbbbz86pbbbbbbbbbnbbbbbbbbbbbu87znn< @ ",
" $ unbf67knbnbbz88pbbbbbbbbbbbbiuubbbbbbu87znb< @ ",
" $ unnf67kbbbbbz78pbbbbbbbbbbbb678bbbbbbu67xnn< @ ",
" @ unnf67kbbbbbz8ypnbbbbbbbbbbxy6ubbbbbbu68zbM,X@ ",
" . =::=*&*>;;;;-=-=;;;;;;;;;-;-===-;-;;;*&&;:;%   ",
"  .                                               ",
"   .@+....++++++.+.++++++++++++...++++++...+++.   ",
"    ))))))))))))))))))))))))))))))))))))))))))    ",
"   )))))))))))))))))))))))))))))))))))))))))))    ",
"    ))))))))))))))))))))))))))))))))))))))))))    ",
"))))))))))))))))))))))))))))))))))))))))))))))))))"
};
