/* XPM */
static char *result[] = {
/* columns rows colors chars-per-pixel */
"50 50 134 2 ",
"   c #000000",
".  c #0B0605",
"X  c #05050B",
"o  c #0A060A",
"O  c #0C080D",
"+  c #110902",
"@  c #130B0C",
"#  c #000011",
"$  c #0D0A13",
"%  c #00001A",
"&  c #0D001A",
"*  c #130C14",
"=  c #180F15",
"-  c #12001F",
";  c #19071C",
":  c #150C1A",
">  c #161114",
",  c #191215",
"<  c #15121A",
"1  c #1C141C",
"2  c #1A1B1D",
"3  c #21161E",
"4  c #251A1E",
"5  c #000D25",
"6  c #140B21",
"7  c #180C20",
"8  c #1E0A29",
"9  c #0F1728",
"0  c #1D1522",
"q  c #191B21",
"w  c #181D2F",
"e  c #201623",
"r  c #241B24",
"t  c #2A1D26",
"y  c #241A29",
"u  c #2A1D2B",
"i  c #271032",
"p  c #281C30",
"a  c #311E33",
"s  c #1D2127",
"d  c #242324",
"f  c #2A2122",
"g  c #26202F",
"h  c #2E222B",
"j  c #2A2B2C",
"k  c #322524",
"l  c #32242D",
"z  c #34282F",
"x  c #3A2B2B",
"c  c #343224",
"v  c #36332A",
"b  c #39342F",
"n  c #2E2232",
"m  c #282C31",
"M  c #332534",
"N  c #382732",
"B  c #352C34",
"V  c #3A2B35",
"C  c #33253B",
"Z  c #37283A",
"A  c #3B2C3B",
"S  c #2E3234",
"D  c #313235",
"F  c #3F3137",
"G  c #3F3A36",
"H  c #3D323B",
"J  c gray22",
"K  c #412F2E",
"L  c #412E3C",
"P  c #443333",
"I  c #43323D",
"U  c #463A3E",
"Y  c #4B3A3C",
"T  c #513E3F",
"R  c #3D2E42",
"E  c #3F2F48",
"W  c #402F47",
"Q  c #443343",
"!  c #4A3544",
"~  c #463944",
"^  c #4B3A46",
"/  c #45344B",
"(  c #4A364C",
")  c #473848",
"_  c #4D3A4C",
"`  c #503E43",
"'  c #533C4C",
"]  c #4E3B51",
"[  c #543E51",
"{  c #3D4043",
"}  c #4A4747",
"|  c #4E434A",
" . c #4B4C4B",
".. c #564140",
"X. c #5A4545",
"o. c #51414C",
"O. c #5B464C",
"+. c #5C484D",
"@. c #544553",
"#. c #5C4354",
"$. c #5B4A55",
"%. c #5C4B59",
"&. c #565554",
"*. c #634C4D",
"=. c #69504E",
"-. c #604657",
";. c #644C54",
":. c #614759",
">. c #634D59",
",. c #684E58",
"<. c #665056",
"1. c #6A5253",
"2. c #66515A",
"3. c #6B545C",
"4. c #6F585F",
"5. c #705555",
"6. c #71575C",
"7. c #73595E",
"8. c #7A5D5D",
"9. c #755C60",
"0. c #785D61",
"q. c #6E6461",
"w. c #7D6163",
"e. c #796D6A",
"r. c #836564",
"t. c #876867",
"y. c #886867",
"u. c #876868",
"i. c #896A6A",
"p. c #857C6C",
"a. c #8A836E",
"s. c #8E8674",
"d. c #A69E86",
"f. c None",
/* pixels */
"f.f.f.f.f.f.f.f.f.f.f.f.f.f.f.f.f.f.f.f.f.f.f.f.f.f.f.f.f.f.f.f.f.f.f.f.f.f.f.f.f.f.f.f.f.f.f.f.f.f.",
"f.f.f.f.f.f.f.f.f.f.f.f.f.f.f.f.f.f.f.f.f.f.f.f.f.f.f.f.f.f.f.f.f.f.f.f.f.f.f.f.f.f.f.f.f.f.f.f.f.f.",
"f.f.f.f.f.f.f.f.f.f.f.f.f.f.f.f.f.f.f.f.f.f.f.f.f.f.f.f.f.f.f.f.f.f.f.f.f.f.f.f.f.f.f.f.f.f.f.f.f.f.",
"f.f.f.f.f.f.f.f.f.f.f.f.f.f.f.f.f.f.f.f.f.f.f.f.f.f.f.f.f.f.f.f.f.f.f.f.f.f.f.f.f.f.f.f.f.f.f.f.f.f.",
"f.f.f.f.f.f.f.f.f.f.f.f.f.f.f.f.f.f.f.f.f.f.f.f.f.f.f.f.f.f.f.f.f.f.f.f.f.f.f.f.f.f.f.f.f.f.f.f.f.f.",
"f.f.f.f.f.f.f.f.f.f.f.f.f.f.f.f.f.f.f.f.f.f.f.f.f.f.f.f.f.f.f.f.f.f.f.f.f.f.f.f.f.f.f.f.f.f.f.f.f.f.",
"f.f.f.f.f.f.f.f.f.f.f.f.f.f.f.f.f.f.f.f.f.f.f.f.f.f.f.f.f.f.f.f.f.f.f.f.f.f.f.f.f.f.f.f.f.f.f.f.f.f.",
"f.f.f.f.f.f.f.f.f.f.f.f.f.f.f.f.f.f.f.f.f.f.f.f.f.f.f.f.      f.f.f.f.f.f.f.f.f.f.f.f.f.f.f.f.f.f.f.",
"f.f.f.f.f.f.f.f.f.f.f.f.f.f.f.f.f.f.f.f.f.f.f.f.  x X.1.8.8.+.U h   f.f.f.f.f.f.f.f.f.f.f.f.f.f.f.f.",
"f.f.f.f.f.f.f.f.f.f.f.f.f.f.f.f.f.f.f.f.f.f.. P O.4.w.u.u.u.4.%.%.;.X., f.f.f.f.f.f.f.f.f.f.f.f.f.f.",
"f.f.f.f.f.f.f.f.f.f.f.f.f.f.f.f.f.f.f.f.  j $.%.$.@.$.2.8.r.r.7.$.%.3.;., f.f.f.f.f.f.f.f.f.f.f.f.f.",
"f.f.f.f.f.f.f.f.f.f.f.f.f.f.f.f.f.f.f.f.Y 4.7.2.>.2.$.@.$.2.w.u.0.2.%.%.Z f.f.f.f.f.f.f.f.f.f.f.f.f.",
"f.f.f.f.f.f.f.f.f.f.f.f.f.f.f.f.f.f.f.k w.u.r.r.r.r.8.3.$.@.$.4.r.r.r.3./ 1 f.f.f.f.f.f.f.f.f.f.f.f.",
"f.f.f.f.f.f.f.f.f.f.f.f.f.f.f.f.f.f.f.T u.w.w.w.w.w.r.u.4.$.@.$.7.r.r.;.' N f.f.f.f.f.f.f.f.f.f.f.f.",
"f.f.f.f.f.f.f.f.f.f.f.f.f.f.> o f.f.f.^ 2.2.2.%.2.<.2.w.r.7.2.%.%.8.0./ #.L f.f.f.f.f.f.f.f.f.f.f.f.",
"f.f.f.f.f.f.f.f.f.f., l z 0 Z I > f.f.^ %.$.$.@.@.@.@.<.w.u.r.0.6.0.,.W [ I f.f.f.f.f.f.f.f.f.f.f.f.",
"f.f.f.f.f.f.f.f.f.f.! :.' M E @.|   f.^ <.6.7.3.4.4.2.@.2.w.r.r.y.6./ / _ A f.f.f.f.f.f.f.f.f.f.f.f.",
"f.f.f.f.f.f.f.f.f.  h #.#.l C ( $.^   T r.r.u.r.r.r.8.$.@.%.w.r.6.[ ( / ( a f.f.f.f.f.f.f.f.f.f.f.f.",
"f.f.f.f.f.    k k _ ~ h ' h   R ] %.H f r.y.r.r.r.y.r.$.@.@.7.7.E ] ] / ( t f.f.f.    f.f.f.f.f.f.f.",
"f.f.f.k 1.+.^ ,.' ) ] H * * f.h / @.$.0 K Y K P Y =.r.8.%.$.o.o.W ' ' / W   * M V ' ! ^ ^ N $ f.f.f.",
"f.f.  ;.0.#.] [ ~ A C ] / > f.  R / : @ x X.+.T *.K x =.3./ / [ _ [ [ R X 0 n E W #.-.:.[ ( / A , f.",
"f.f.f #.( #.Q t 4 u u C ] [ B   0 y D H | | ^ o.+.1.=.l r Q / [ #.O.! o   A R R Q N l I / / _ -.N f.",
"f.f.k $._ ( * f.f.  V h M ( @._ B   | B { D r  .y ^ | Y V e / ) Q t       1 M n e   f.f.  R ' #.L f.",
"f.f.+ P N h 4 @ B t L ! @ y E @.R D j d %     S # S B ! -.r : =     1 n C M R u @ f.f.f.f.l #.:.! f.",
"f.f.I ^ X.;.+.l @.H j V f   0 C ; J < &.2 D o # D 2 Q ! ' !     * M E ( ( ] / ! [ I t @ f.y _ [ ! O ",
"f.P w.>.$.#.~ t ( ( ( _ @.| | H * V j m #  .q s  .5 ! U ` ' o   R ( / / R Z C I -.-.#./ e * / / / = ",
"  1.i.>.C = f.  C Z R ] ] @.%.%.y x U : M 9 w g g R ~ ~ #.#.=   / / A e f.f.f.  l ` #.[ / l M _ [ h ",
"0 2.w.3.p f.f.f.  f.O h Z Z E / 0 f F M M O 0 Q B H Q ' #.^     u n     f.f.f.f.f.  u W ' [ t ! :.M ",
"V 4.>.@.M f.f.f.f.f.f.f.  r r h e r / R 7 i r r A ! O.#.! o   = n n C M u t f.f.f.f.f.e _ -.! L #.3 ",
"x r.>./ u f.f.f.f.f.  ..=.B ) _ 6 B e.^ U e.C * 3 ^ [ N       C / / ( C I -.V f.f.f.f.* ' -.' 4 1 1 ",
"  5.,.6 f.f.f.f.f.* $.w.;.u ( A   c d.q.a.d.8     * o         u R n M M ' #.] C   f.f.t [ -.#.3 f., ",
"f.t t f.f.f.f.f.  @.2.' Z < $ 3 ~   s.e.p.p.  V 3 p y   f.      f.f.f.  ! [ / ( ' V   M ( _ _ r f.f.",
"f.: f.f.f.f.f.  1.2.( C f.f.f.* [ u v v t P a $.' Z y f.f.f.f.f.f.f.f.f.O r W ' -.#.h y ( / / 0 f.f.",
"f.f.f.f.f.f.f.X.r.#.A   f.f.f.f.l Z f.f.f.& ] ( Q . f.f.f.f.f.f.f.f.f.f.f.f.  ' [ [ A O ^ [ _ 1 f.f.",
"f.f.f.f.f.f.f.1.3.[ 4 f.f.f.f.f.X L f f.f.^ _ / 1 f.f.f.f.f.f.f.f.f.f.f.f.f.f.M ' / R   V :.' @ f.f.",
"f.f.f.f.f.f.  +.$.] t f.f.f.f.f.f.N 3 f.  ' #.^ o f.f.f.f.f.f.f.f.f.f.f.f.f.f.M / / ' e   ! _ 1 f.f.",
"f.f.f.f.f.f.  O.@./ M f.f.f.f.f.f.  f.f.  ' #.'   f.f.f.f.f.f.f.f.f.f.f.f.f.f.X ! #.#.N f.f., 1 f.f.",
"f.f.f.f.f.f.f.o.:.( Q   f.f.f.f.f.f.f.f.  _ [ ' 1 f.f.f.f.f.f.f.f.f.f.f.f.f.f.f.t [ o.r f.f.f.f.f.f.",
"f.f.f.f.f.f.f.X.w.#.[ . f.f.f.f.f.f.f.f.  Q _ ( r f.f.f.f.f.f.f.f.f.f.f.f.f.f.f.f.V l f.f.f.f.f.f.f.",
"f.f.f.f.f.f.f.x 7.-.l f.f.f.f.f.f.f.f.f.  W ] / u f.f.f.f.f.f.f.f.f.f.f.f.f.f.f.f.t 1 f.f.f.f.f.f.f.",
"f.f.f.f.f.f.f.f.t L   f.f.f.f.f.f.f.f.f.f.L [ _ t f.f.f.f.f.f.f.f.f.f.f.f.f.f.f.f.f.f.f.f.f.f.f.f.f.",
"f.f.f.f.f.f.f.f.h   f.f.f.f.f.f.f.f.f.f.f.N -.'   f.f.f.f.f.f.f.f.f.f.f.f.f.f.f.f.f.f.f.f.f.f.f.f.f.",
"f.f.f.f.f.f.f.f.o f.f.f.f.f.f.f.f.f.f.f.f.> ' z f.f.f.f.f.f.f.f.f.f.f.f.f.f.f.f.f.f.f.f.f.f.f.f.f.f.",
"f.f.f.f.f.f.f.f.f.f.f.f.f.f.f.f.f.f.f.f.f.r r f.f.f.f.f.f.f.f.f.f.f.f.f.f.f.f.f.f.f.f.f.f.f.f.f.f.f.",
"f.f.f.f.f.f.f.f.f.f.f.f.f.f.f.f.f.f.f.f.f.r t f.f.f.f.f.f.f.f.f.f.f.f.f.f.f.f.f.f.f.f.f.f.f.f.f.f.f.",
"f.f.f.f.f.f.f.f.f.f.f.f.f.f.f.f.f.f.f.f.f.  . f.f.f.f.f.f.f.f.f.f.f.f.f.f.f.f.f.f.f.f.f.f.f.f.f.f.f.",
"f.f.f.f.f.f.f.f.f.f.f.f.f.f.f.f.f.f.f.f.f.f.f.f.f.f.f.f.f.f.f.f.f.f.f.f.f.f.f.f.f.f.f.f.f.f.f.f.f.f.",
"f.f.f.f.f.f.f.f.f.f.f.f.f.f.f.f.f.f.f.f.f.f.f.f.f.f.f.f.f.f.f.f.f.f.f.f.f.f.f.f.f.f.f.f.f.f.f.f.f.f.",
"f.f.f.f.f.f.f.f.f.f.f.f.f.f.f.f.f.f.f.f.f.f.f.f.f.f.f.f.f.f.f.f.f.f.f.f.f.f.f.f.f.f.f.f.f.f.f.f.f.f.",
"f.f.f.f.f.f.f.f.f.f.f.f.f.f.f.f.f.f.f.f.f.f.f.f.f.f.f.f.f.f.f.f.f.f.f.f.f.f.f.f.f.f.f.f.f.f.f.f.f.f."
};
