/* XPM */
static char *result[] = {
/* columns rows colors chars-per-pixel */
"50 50 151 2 ",
"   c #010000",
".  c #0B0503",
"X  c #0F0804",
"o  c #01030C",
"O  c #0C0C0B",
"+  c #100704",
"@  c #120A05",
"#  c #1C0C03",
"$  c #15120D",
"%  c #1B120B",
"&  c #0B1012",
"*  c #1E1512",
"=  c #171619",
"-  c #320C00",
";  c #241203",
":  c #2B1404",
">  c #24170D",
",  c #2A1709",
"<  c #26180E",
"1  c #2C1B0E",
"2  c #311900",
"3  c #3B1F00",
"4  c #311E0F",
"5  c #231715",
"6  c #2B1C11",
"7  c #301E11",
"8  c #3D2300",
"9  c #3F2804",
"0  c #2F2013",
"q  c #352216",
"w  c #382517",
"e  c #33251B",
"r  c #3A2719",
"t  c #3D291A",
"y  c #0E162C",
"u  c #031735",
"i  c #051836",
"p  c #0C1C37",
"a  c #121E37",
"s  c #242322",
"d  c #2D2627",
"f  c #23252F",
"g  c #3F2D24",
"h  c #312A2C",
"j  c #332E3F",
"k  c #392C39",
"l  c #411600",
"z  c #451B00",
"x  c #402500",
"c  c #462C00",
"v  c #483302",
"b  c #543600",
"n  c #543801",
"m  c #422D1E",
"M  c #4E3514",
"N  c #46301F",
"B  c #49321E",
"V  c #553A16",
"C  c #553B1A",
"Z  c #463121",
"A  c #4C3623",
"S  c #4F3825",
"D  c #4C372C",
"F  c #4F3A2E",
"G  c #513722",
"H  c #533B27",
"J  c #543C29",
"K  c #583F2E",
"L  c #4E3D31",
"P  c #48383D",
"I  c #503D3F",
"U  c #57412E",
"Y  c #5B422E",
"T  c #554234",
"R  c #5C4433",
"E  c #57443B",
"W  c #624733",
"Q  c #634834",
"!  c #654B39",
"~  c #6A4E3B",
"^  c #333047",
"/  c #3B3244",
"(  c #3C364A",
")  c #363553",
"_  c #3E3A54",
"`  c #2E3D6D",
"'  c #3B3D6B",
"]  c #283D72",
"[  c #4D3C44",
"{  c #453F56",
"}  c #514042",
"|  c #50424E",
" . c #464257",
".. c #4F4455",
"X. c #40405F",
"o. c #4F4558",
"O. c #504558",
"+. c #745743",
"@. c #775843",
"#. c #795A45",
"$. c #7C5D48",
"%. c #786E5B",
"&. c #7B715F",
"*. c #4D4C6D",
"=. c #4B4E75",
"-. c #4A4F78",
";. c #84634D",
":. c #8E6B53",
">. c #916D55",
",. c #957057",
"<. c #977259",
"1. c #9B755B",
"2. c #A0795F",
"3. c #827764",
"4. c #807F7F",
"5. c #A57D62",
"6. c #A87F64",
"7. c #988A74",
"8. c #9D9079",
"9. c #AA8165",
"0. c #AE8568",
"q. c #B2876B",
"w. c #B68A6C",
"e. c #A2947C",
"r. c #253F82",
"t. c #264286",
"y. c #294285",
"u. c #24448A",
"i. c #3B4E89",
"p. c #2F4E91",
"a. c #2D5098",
"s. c #325596",
"d. c #325698",
"f. c #355AA2",
"g. c #3B63AE",
"h. c #3B65B1",
"j. c #3D68B5",
"k. c #3768B8",
"l. c #848282",
"z. c #8E8C8C",
"x. c #939192",
"c. c #A69881",
"v. c #AC9E85",
"b. c #B2A38A",
"n. c #B9A98E",
"m. c #BDAD92",
"M. c #C2B196",
"N. c #C5B599",
"B. c #C9B89B",
"V. c #D5D4D4",
"C. c None",
/* pixels */
"C.C.C.C.C.C.C.C.C.C.C.C.C.C.C.C.C.C.C.C.C.C.C.C.C.C.C.C.C.C.C.C.C.C.C.C.C.C.C.C.C.C.C.C.C.C.C.C.C.C.",
"C.C.C.C.C.C.C.C.C.C.C.C.C.C.C.C.C.          C.C.C.                      C.C.C.C.C.C.C.C.C.C.C.C.C.C.",
"C.C.C.C.C.C.C.C.C.C.C.C.C.C.C.C.C.    . + + C.C.C.. . X @ @ + @ @       C.C.C.C.C.C.C.C.C.C.C.C.C.C.",
"C.C.C.C.C.C.C.C.C.C.C.C.              0 H H 0   X r w t H S S H S @     C.C.C.C.C.C.C.C.C.C.C.C.C.C.",
"C.C.C.C.C.C.C.C.C.C.C.C.              0 J J 0   . t w N J H U J H @     C.C.C.C.C.C.C.C.C.C.C.C.C.C.",
"C.C.C.C.C.C.C.C.C.    > q q N B Z Z B A J J m 7 w Z S S H H t 1 6 .   . C.C.C.C.C.C.C.C.C.C.C.C.C.C.",
"C.C.C.C.C.C.C.C.C.    < t r S J J U J J H J m r t H J H S U 1           C.C.C.C.C.C.C.C.C.C.C.C.C.C.",
"C.C.C.C.C.C.C.C.C..   6 Z Z G H J G H G H H A N Z S H H H H N r t 6 6 6 C.C.C.C.C.C.C.C.C.C.C.C.C.C.",
"C.C.C.C.C.C.C.C.C.    q U J H H H H H H H H J J U H H H H H J U J m t q     C.C.C.C.C.C.C.C.C.C.C.C.",
"C.C.C.C.C.C.C.C.C.% @ r J G H H H J H H H H H H H H H H H H H G G m m r # % C.C.C.C.C.C.C.C.C.C.C.C.",
"C.C.C.C.C.C.    + r r Z J H H J H H H H H H H H H H H H H H J H H H J A t t <     C.C.C.C.C.C.C.C.C.",
"C.C.C.C.C.C.    + t r N J H H H H H H H H H H H H H H H H H H H H J J A w t <     C.C.C.C.C.C.C.C.C.",
"C.C.C.C.C.C.    + t r Z H H H H H H H H J H H H H H H H H H H H H H J A t t >     C.C.C.C.C.C.C.C.C.",
"C.C.C.C.C.C.    X t r Z J H H H H H H J H H H H H H H H J H H H H H J A r t >   . C.C.C.C.C.C.C.C.C.",
"C.C.C.C.C.C.    X t r N H H H H H H H H H H H H J H H H H H H H H H J A r t >     C.C.C.C.C.C.C.C.C.",
"C.C.C.C.C.C.    + t r N J J H H H H H H H H H H H H H H J H H H H J J S r t <     C.C.C.C.C.C.C.C.C.",
"C.C.C.C.C.C.    + r r m Z Z H H H H H H H H H H H J H H H H H H H A A N r t >     C.C.C.C.C.C.C.C.C.",
"C.C.C.C.C.C.    + t t r r r A J U H H H H H H H H H H H J J J J H t w r t t >     C.C.C.C.C.C.C.C.C.",
"C.C.C.C.C.C.C.  + w q r t t A G S A C H H H H H H H H H A A A A G t t t r t >     C.C.C.C.C.C.C.C.C.",
"C.C.C.C.C.C.C.C.C.    > t t r r r t r N H H H H H H J A r t t t r t r r t m >     C.C.C.C.C.C.C.C.C.",
"C.C.C.C.C.C.C.C.C.    > t r t r t t r m H H H H G H H A r t r t t r t r r t >     C.C.C.C.C.C.C.C.C.",
"C.C.C.C.C.C.C.C.C.    < m t t t r t t t m t m t t m t m t t r t t t m q . + C.C.C.C.C.C.C.C.C.C.C.C.",
"C.C.C.C.C.C.C.C.C.    # 4 1 w t r r r t r r r r t r r r r t r r r 7 4 >     C.C.C.C.C.C.C.C.C.C.C.C.",
"C.C.C.C.C.C.C.C.C..   R >.:.R r m m m t t t t t t t t t m m m t Z ;.>.#.  . C.C.C.C.C.C.C.C.C.C.C.C.",
"C.C.C.C.C.C.C.C.C.@   +.w.q.!   , ; ; 1 t r r r t r m q ; ; : # q 6.w.<.  . C.C.C.C.C.C.C.C.C.C.C.C.",
"C.C.C.C.C.C.C.C.C.C.C.! ;.$.#.+.@.#.#.~ r m m m m m r K #.#.@.@.#.$.;.@.C.. C.C.C.C.C.C.C.C.C.C.C.C.",
"C.C.C.C.C.C.C.C.C.C.C.C.    ,.q.9.9.0.:.. 4 1 1 1 1   ~ 9.6.9.0.9.$     C.C.C.C.C.C.C.C.C.C.C.C.C.C.",
"C.C.C.C.C.C.C.C.C.C.C.C.%   ;.1.<.2.5.>.K R W Y R W K #.6.5.1.<.,.e   % C.C.C.C.C.C.C.C.C.C.C.C.C.C.",
"C.C.C.C.C.C.C.C.C.C.C.C.    B G Y 2.6.6.9.9.2.9.6.6.6.6.5.9.#.m H @     C.C.C.C.C.C.C.C.C.C.C.C.C.C.",
"C.C.C.C.C.C.C.C.C.C.C.C.    Z G W 2.2.2.2.2.9.2.2.5.2.2.5.6.~ B J @     C.C.C.C.C.C.C.C.C.C.C.C.C.C.",
"C.C.C.C.C.C.C.C.C.C.C.C.    B J J Q Q Q W W Q Q Q Q W W W W W J H * $ $ $ $ C.C.C.C.C.C.C.C.C.C.C.C.",
"C.C.C.C.C.C.C.C.C.C.C.C.    B J H A A G S A G B A A A A A C H J S           C.C.C.C.C.C.C.C.C.C.C.C.",
"C.C.C.C.C.C.C.C.C.C.C.C.    Z J H J J J J J J J J J J J H J H G U 7.8.8.8.e.%.  $ C.C.C.C.C.C.C.C.C.",
"C.C.C.C.C.C.C.C.C.C.C.C.    B U H H H H H J H H H H H H H H K G R m.N.M.M.B.3.  $ C.C.C.C.C.C.C.C.C.",
"C.C.C.C.C.C.C.C.C.C.C.C.    g D D L L J H J J J J K J L J L L Z T b.m.n.n.m.&.  $ C.C.C.C.C.C.C.C.C.",
"C.C.C.C.C.C.C.C.C.C.C.C.    2 8 8 b b b V V C V V n n n b b c - v n.N.M.M.N.3.  $ C.C.C.C.C.C.C.C.C.",
"C.C.C.C.C.C.C.C.C.C.C.C.    ^ _ _ ......[ [ [ [ [ ........O.{ )  .c.v.v.v.b.&.  $ C.C.C.C.C.C.C.C.C.",
"C.C.C.C.C.C.C.C.C.C.C.C.o   d.j.h.g.j.f.t.t.u.t.u.g.j.h.g.h.g.j.g.u   o     C.C.C.C.C.C.C.C.C.C.C.C.",
"C.C.C.C.C.C.C.C.C.C.C.C.o   d.j.g.g.j.d.r.y.y.y.t.g.g.g.h.g.g.g.g.i         C.C.C.C.C.C.C.C.C.C.C.C.",
"C.C.C.C.C.C.C.C.C.C.C.C.O   ^ ( ( ( ( / k k P [ [ | } -.h.g.g.j.f.a   = C.C.C.C.C.C.C.C.C.C.C.C.C.C.",
"C.C.C.C.C.C.C.C.C.C.C.C.    : x 8 8 8 8 9 8 M C C V b *.k.h.h.h.j.p     C.C.C.C.C.C.C.C.C.C.C.C.C.C.",
"C.C.C.C.C.C.C.C.C.C.C.C.C.C.l.. h h h d 5 * Z J J J H | =.=.i.a.p.y   4.V.C.C.C.C.C.C.C.C.C.C.C.C.C.",
"C.C.C.C.C.C.C.C.C.C.C.C.C.C.C.              m J S G H C b b ' u.r.y   x.C.C.C.C.C.C.C.C.C.C.C.C.C.C.",
"C.C.C.C.C.C.C.C.C.C.C.C.C.C.C.C.C.C.C.z.s & L R T R T T E R X.] ` f   z.C.C.C.C.C.C.C.C.C.C.C.C.C.C.",
"C.C.C.C.C.C.C.C.C.C.C.C.C.C.C.C.C.C.C.C.    - z l l l l l z           C.C.C.C.C.C.C.C.C.C.C.C.C.C.C.",
"C.C.C.C.C.C.C.C.C.C.C.C.C.C.C.C.C.C.C.C.C.C.C.C.C.C.C.C.C.C.C.C.C.C.C.C.C.C.C.C.C.C.C.C.C.C.C.C.C.C.",
"C.C.C.C.C.C.C.C.C.C.C.C.C.C.C.C.C.C.C.C.C.C.C.C.C.C.C.C.C.C.C.C.C.C.C.C.C.C.C.C.C.C.C.C.C.C.C.C.C.C.",
"C.C.C.C.C.C.C.C.C.C.C.C.C.C.C.C.C.C.C.C.C.C.C.C.C.C.C.C.C.C.C.C.C.C.C.C.C.C.C.C.C.C.C.C.C.C.C.C.C.C.",
"C.C.C.C.C.C.C.C.C.C.C.C.C.C.C.C.C.C.C.C.C.C.C.C.C.C.C.C.C.C.C.C.C.C.C.C.C.C.C.C.C.C.C.C.C.C.C.C.C.C.",
"C.C.C.C.C.C.C.C.C.C.C.C.C.C.C.C.C.C.C.C.C.C.C.C.C.C.C.C.C.C.C.C.C.C.C.C.C.C.C.C.C.C.C.C.C.C.C.C.C.C."
};
