/* XPM */
static char *result[] = {
/* columns rows colors chars-per-pixel */
"50 50 181 2 ",
"   c #010000",
".  c #0B0502",
"X  c #0F0805",
"o  c #07080C",
"O  c #130000",
"+  c #120A05",
"@  c #1C0E04",
"#  c #1C1109",
"$  c #15120C",
"%  c #070F13",
"&  c #0E1219",
"*  c #181818",
"=  c #220F00",
"-  c #23150B",
";  c #2A1709",
":  c #27190F",
">  c #2C1A0C",
",  c #261404",
"<  c #381D02",
"1  c #231812",
"2  c #2C1D12",
"3  c #241B18",
"4  c #301F13",
"5  c #3D2406",
"6  c #2F251F",
"7  c #352316",
"8  c #392516",
"9  c #352419",
"0  c #3A2619",
"q  c #3D2A1B",
"w  c #3C2817",
"e  c #281E29",
"r  c #292A2A",
"t  c #2C2425",
"y  c #3B2B21",
"u  c #3B302B",
"i  c #3E323E",
"p  c #323234",
"a  c #472700",
"s  c #492700",
"d  c #402A0A",
"f  c #4F3100",
"g  c #553500",
"h  c #553901",
"j  c #573A04",
"k  c #432E1E",
"l  c #412B17",
"z  c #45301E",
"x  c #4D341D",
"c  c #50361D",
"v  c #543B1D",
"b  c #573C11",
"n  c #462F21",
"m  c #463121",
"M  c #4C3523",
"N  c #4F3825",
"B  c #4F3828",
"V  c #4E3728",
"C  c #533B27",
"Z  c #543C29",
"A  c #593F2C",
"S  c #4A3C34",
"D  c #533D30",
"F  c #5C432E",
"G  c #564337",
"H  c #5C4330",
"J  c #634936",
"K  c #6B4E39",
"L  c #614735",
"P  c #6E513D",
"I  c #70533D",
"U  c #001B54",
"Y  c #1B3159",
"T  c #20335A",
"R  c #223B78",
"E  c #373763",
"W  c #513F42",
"Q  c #423E62",
"!  c #524042",
"~  c #594D45",
"^  c #565656",
"/  c #735643",
"(  c #775944",
")  c #795B46",
"_  c #7D5D48",
"`  c #745F4B",
"'  c #71614E",
"]  c #7A6C5B",
"[  c #494E77",
"{  c #4F547F",
"}  c #7D7C7C",
"|  c #85634C",
" . c #88654E",
".. c #876650",
"X. c #8D6A53",
"o. c #8B6B5C",
"O. c #936E55",
"+. c #94735B",
"@. c #9F785F",
"#. c #9A745A",
"$. c #A3775B",
"%. c #A47B5F",
"&. c #8C7F6B",
"*. c #957A64",
"=. c #A57D62",
"-. c #A97F63",
";. c #A27D6C",
":. c #8F826C",
">. c #90836E",
",. c #938671",
"<. c #978A74",
"1. c #AB8165",
"2. c #A88368",
"3. c #B08466",
"4. c #B18769",
"5. c #A68B71",
"6. c #B18F74",
"7. c #A7957C",
"8. c #B19479",
"9. c #003786",
"0. c #1F3D82",
"q. c #263E82",
"w. c #2D4F8C",
"e. c #304E89",
"r. c #2A4C93",
"t. c #35579C",
"y. c #295DAF",
"u. c #275DAF",
"i. c #345AA2",
"p. c #3B5DA3",
"a. c #375FA9",
"s. c #255EB2",
"d. c #3360AD",
"f. c #3C63AE",
"g. c #3E60A6",
"h. c #3B65B1",
"j. c #3C68B6",
"k. c #3468BA",
"l. c #3363B2",
"z. c #475283",
"x. c #495281",
"c. c #445A95",
"v. c #7A7C8F",
"b. c #747587",
"n. c #777C94",
"m. c #7B7E93",
"M. c #787F98",
"N. c #405EA1",
"B. c #4162A7",
"V. c #556CA5",
"C. c #4069B7",
"Z. c #6476A6",
"A. c #6D7FB0",
"S. c #7D8095",
"D. c #6E82B3",
"F. c #8E8681",
"G. c #888C9F",
"H. c #949397",
"J. c #AC9C84",
"K. c #A69884",
"L. c #B49D82",
"P. c #B4A186",
"I. c #B4A48A",
"U. c #B9A58B",
"Y. c #BBA98F",
"T. c #B7A88D",
"R. c #ADA092",
"E. c #BDAD92",
"W. c #BFB196",
"Q. c #9799A3",
"!. c #9DA0AE",
"~. c #B4B0AE",
"^. c #A0A4B1",
"/. c #ABADB6",
"(. c #ADB0B9",
"). c #B4B2B1",
"_. c #C2B296",
"`. c #C5B69A",
"'. c #CBBA9D",
"]. c #D3D1D1",
"[. c None",
/* pixels */
"[.[.[.[.[.[.[.[.[.[.[.[.[.[.[.[.[.[.[.[.[.[.[.[.[.[.[.[.[.[.[.[.[.[.[.[.[.[.[.[.[.[.[.[.[.[.[.[.[.[.",
"[.[.[.[.[.[.[.[.[.[.[.[.                      [.[.          [.[.[.[.[.[.[.[.[.[.[.[.[.[.[.[.[.[.[.[.",
"[.[.[.[.[.[.[.[.[.[.[.[.    . # # # # # + + + [.[.# # @     [.[.[.[.[.[.[.[.[.[.[.[.[.[.[.[.[.[.[.[.",
"[.[.[.[.[.[.[.[.[.[.[.[.    : Z C C C C q q 2     m A M                 [.[.[.[.[.[.[.[.[.[.[.[.[.[.",
"[.[.[.[.[.[.[.[.[.[.[.[.    1 C C C C C w q 7     z F M   . . . .       [.[.[.[.[.[.[.[.[.[.[.[.[.[.",
"[.[.[.[.[.[.[.[.[.[.[.[.    . # X k Z C C C m 7 8 M C C N M N M M 0 q 4     [.[.[.[.[.[.[.[.[.[.[.[.",
"[.[.[.[.[.[.[.[.[.[.[.[.          q Z C C Z M 8 0 N Z C C Z C Z C q 0 7     [.[.[.[.[.[.[.[.[.[.[.[.",
"[.[.[.[.[.[.[.[.[.[.    7 7 0 x m N Z Z C C C M M C C C C C C C C M C k     [.[.[.[.[.[.[.[.[.[.[.[.",
"[.[.[.[.[.[.[.[.[.[.    7 0 k Z Z C C C C C Z Z Z C C C C C C C C C Z z     [.[.[.[.[.[.[.[.[.[.[.[.",
"[.[.[.[.[.[.[.[.[.: 4 2 z x M C C C Z C C C N z z N C C C C Z C C C Z m : 7 #   [.[.[.[.[.[.[.[.[.[.",
"[.[.[.[.[.[.[.    : q 0 C C C C C Z Z C C Z M 7 0 N F C Z C C C C Z Z M 0 l #     [.[.[.[.[.[.[.[.[.",
"[.[.[.[.[.[.[.    4 m z C C C Z C N M M M N M q q M M M Z Z C C C C C N k m :     [.[.[.[.[.[.[.[.[.",
"[.[.[.[.[.[.[.    0 Z Z Z C C C Z z 8 8 > > > 2 > > ; 7 x M N Z C C C C Z Z 2   . [.[.[.[.[.[.[.[.[.",
"[.[.[.[.[.[.[..   7 Z C C C C C C z 0 k H J J J J J J J P I F N N C C C C Z >     [.[.[.[.[.[.[.[.[.",
"[.[.[.[.[.[.[.    0 Z C C C C C Z n > m %.1.1.1.1.=.-.=.-.3.( O 0 C Z C C Z 2     [.[.[.[.[.[.[.[.[.",
"[.[.[.[.[.[.[.    7 Z C C Z C C C B M A @.1.%.%.=.=.=.=.%.1.' z C N C C C Z 4     [.[.[.[.[.[.[.[.[.",
"[.[.[.[.[.[.[..   0 Z C C C C 0 ; | 1.=.=.=.%.=.%.=.%.-.=.=.%.%.*.C 4 n Z Z 2     [.[.[.[.[.[.[.[.[.",
"[.[.[.[.[.[.[.    9 Z C C C N q > | 1.=.=.=.=.=.=.=.=.=.=.=.=.1.=.V 4 z Z Z 2     [.[.[.[.[.[.[.[.[.",
"[.[.[.[.[.[.[.    2 k l C M K @.@./ 7 G P.Y.T.U.U.U.Y.J.m q | 1.$.V 8 0 @ - [.[.[.[.[.[.[.[.[.[.[.[.",
"[.[.[.[.[.[.[.    : l 0 C M K -.-.P   u E.E.E.E._.E._.J.    _ 1.@.n , -     [.[.[.[.[.[.[.[.[.[.[.[.",
"[.[.[.[.[.[.[.[.[.[.- # C x ) P.U.]   S T.E.E.E.E.Y._.J.3   &.Y.L.+.O.)   X [.[.[.[.[.[.[.[.[.[.[.[.",
"[.[.[.[.[.[.[.[.[.[.    k < ' W.`.]   1 T.W.Y.E.E.E._.J.    ,.`.E.2.2.X.  + [.[.[.[.[.[.[.[.[.[.[.[.",
"[.[.[.[.[.[.[.[.[.[.    ) | *.E.E.7.&.,.E.E.E.E.E.E._.I.&.&.J._.E.=.=.|   X [.[.[.[.[.[.[.[.[.[.[.[.",
"[.[.[.[.[.[.[.[.[.[.    @.1.6.W.E._._._.E.E.E.E.E.E.E._._._._._.E.4.1.X.  X [.[.[.[.[.[.[.[.[.[.[.[.",
"[.[.[.[.[.[.[.[.[.[.    _  .*.L.L.U.E.Y.Y.E.Y.Y.E.Y.E.Y.Y.E.I.L.L.X.X./   . [.[.[.[.[.[.[.[.[.[.[.[.",
"[.[.[.[.[.[.[.[.[.[.    : O H -.$.L._.E._.E._._.E.E._.E.E._.8.$.=.k = -     [.[.[.[.[.[.[.[.[.[.[.[.",
"[.[.[.[.[.[.[.[.[.[.    8 2 H #.O.8.U.U.U.U.U.U.U.U.U.U.U.U.5.O.+.M 7 7     [.[.[.[.[.[.[.[.[.[.[.[.",
"[.[.[.[.[.[.[.[.[.[.[.[.    @ 0 @ | 1.%.%.%.%.$.=.%.%.%.=.-.( = 0 .     [.[.[.[.[.[.[.[.[.[.[.[.[.[.",
"[.[.[.[.[.[.[.[.[.[.[.[.    # q > | =.@.;.=.;.;.;.;.;.*.$.=./ > q +     [.[.[.[.[.[.[.[.[.[.[.[.[.[.",
"[.[.[.[.[.[.[.[.[.[.[.[.    # q w n k S v.m.m.m.v.m.G.b.A F N 8 0 X     [.[.[.[.[.[.[.[.[.[.[.[.[.[.",
"[.[.[.[.[.[.[.[.[.[.[.[..   # 0 q 0 < u n.n.M.n.m.n.S.b.x C m 8 0 +   . [.[.[.[.[.[.[.[.[.[.[.[.[.[.",
"[.[.[.[.[.[.[.[.[.[.[.[.$ $ 1 q 0 M c G n.n.G.^.^.Q.^.H.c C C C N $ . + [.[.[.[.[.[.[.[.[.[.[.[.[.[.",
"[.[.[.[.[.[.[.[.[.[.[.[.      q 9 M C G m.n.Q./././.(.Q.x C Z Z B       [.[.[.[.[.[.[.[.[.[.[.[.[.[.",
"[.[.[.[.[.[.[.[.[.[.    <.7.:.n V Z C G V.V.Z.D.A.A.D.Z.C Z D Z D | X._   X [.[.[.[.[.[.[.[.[.[.[.[.",
"[.[.[.[.[.[.[.[.[.[.    I.'.P.f b h g Z a.l.y.y.y.y.s.i.g g g g j =.4.X.  X [.[.[.[.[.[.[.[.[.[.[.[.",
"[.[.[.[.[.[.[.[.[.[.    K._.K.E Q [ x.z.f.h.B.h.C.B.h.B.x.z.z.z.{ *.1...  X [.[.[.[.[.[.[.[.[.[.[.[.",
"[.[.[.[.[.[.[.[.[.[.    I.'.R.9.q.i.k.h.f.f.h.h.h.f.h.h.j.h.j.k.C.;.3.X.  + [.[.[.[.[.[.[.[.[.[.[.[.",
"[.[.[.[.[.[.[.[.[.[.    <.7.F.r.r.i.h.f.f.h.a.i.i.f.f.f.f.f.c.c.c.o.O.(   X [.[.[.[.[.[.[.[.[.[.[.[.",
"[.[.[.[.[.[.[.[.[.[.[.[.    U j.h.f.f.h.f.h.t.q.q.f.h.f.h.k.[ g j M M l     [.[.[.[.[.[.[.[.[.[.[.[.",
"[.[.[.[.[.[.[.[.[.[.[.[.* . T h.f.f.h.f.f.h.t.R R t.p.p.p.p.[ j Z Z Z m % * [.[.[.[.[.[.[.[.[.[.[.[.",
"[.[.[.[.[.[.[.[.[.[.[.[.    Y j.f.f.f.d.f.j.w.  o 7 w w C C C C C C Z 5     [.[.[.[.[.[.[.[.[.[.[.[.",
"[.[.[.[.[.[.[.[.[.[.[.[.p   Y f.f.f.f.f.g.h.e.. & q q m Z Z Z Z A Z Z ~ ^ ^ [.[.[.[.[.[.[.[.[.[.[.[.",
"[.[.[.[.[.[.[.[.[.[.[.[.}   t W ! W ! W i E 4                         H.].[.[.[.[.[.[.[.[.[.[.[.[.[.",
"[.[.[.[.[.[.[.[.[.[.[.[.}   9 v v v v C 5 d q r r r r r r r r r r r   [.[.[.[.[.[.[.[.[.[.[.[.[.[.[.",
"[.[.[.[.[.[.[.[.[.[.[.[.}   t Z A Z D Z 3   H.[.[.[.[.[.[.[.[.[.[.[.[.[.[.[.[.[.[.[.[.[.[.[.[.[.[.[.",
"[.[.[.[.[.[.[.[.[.[.[.[.[.  O s s a a a     [.[.[.[.[.[.[.[.[.[.[.[.[.[.[.[.[.[.[.[.[.[.[.[.[.[.[.[.",
"[.[.[.[.[.[.[.[.[.[.[.[.[.[.).~.~.~.~.~.).[.[.[.[.[.[.[.[.[.[.[.[.[.[.[.[.[.[.[.[.[.[.[.[.[.[.[.[.[.",
"[.[.[.[.[.[.[.[.[.[.[.[.[.[.[.[.[.[.[.[.[.[.[.[.[.[.[.[.[.[.[.[.[.[.[.[.[.[.[.[.[.[.[.[.[.[.[.[.[.[.",
"[.[.[.[.[.[.[.[.[.[.[.[.[.[.[.[.[.[.[.[.[.[.[.[.[.[.[.[.[.[.[.[.[.[.[.[.[.[.[.[.[.[.[.[.[.[.[.[.[.[.",
"[.[.[.[.[.[.[.[.[.[.[.[.[.[.[.[.[.[.[.[.[.[.[.[.[.[.[.[.[.[.[.[.[.[.[.[.[.[.[.[.[.[.[.[.[.[.[.[.[.[."
};
