/* XPM */
static char *result[] = {
/* columns rows colors chars-per-pixel */
"50 50 198 2 ",
"   c #010100",
".  c #0B0502",
"X  c #070805",
"o  c #120401",
"O  c #1D0000",
"+  c #130A05",
"@  c #1A0B04",
"#  c #180F09",
"$  c #1E130A",
"%  c #191007",
"&  c #000210",
"*  c #100C13",
"=  c #0C1111",
"-  c #181716",
";  c #270000",
":  c #2B0100",
">  c #220F02",
",  c #2C0C00",
"<  c #370200",
"1  c #251204",
"2  c #23160C",
"3  c #26190F",
"4  c #291708",
"5  c #381C04",
"6  c #231710",
"7  c #231811",
"8  c #2C1D12",
"9  c #2D1D19",
"0  c #311F11",
"q  c #392108",
"w  c #2B251E",
"e  c #2F2013",
"r  c #352316",
"t  c #392517",
"y  c #32221A",
"u  c #3A2619",
"i  c #3D291B",
"p  c #2B2620",
"a  c #392D24",
"s  c #313132",
"d  c #401A00",
"f  c #4B2700",
"g  c #4C2C00",
"h  c #502B00",
"j  c #543800",
"k  c #422D1D",
"l  c #46301D",
"z  c #4A331D",
"x  c #503511",
"c  c #54391B",
"v  c #422F22",
"b  c #453123",
"n  c #4B3523",
"m  c #4F3825",
"M  c #4A392C",
"N  c #533B27",
"B  c #553D29",
"V  c #583F2B",
"C  c #4B3E35",
"Z  c #523D31",
"A  c #523F3E",
"S  c #5C4332",
"D  c #56433B",
"F  c #56473B",
"G  c #5A4932",
"H  c #644936",
"J  c #664B39",
"K  c #6C513E",
"L  c #71523F",
"P  c #78573D",
"I  c #001F5C",
"U  c #2E324F",
"Y  c #273B7A",
"T  c #2D3A6A",
"R  c #513F41",
"E  c #2E4176",
"W  c #384171",
"Q  c #39456E",
"!  c #4B4B4C",
"~  c #444546",
"^  c #564F42",
"/  c #595244",
"(  c #5D544C",
")  c #4E4E50",
"_  c #47485F",
"`  c #524F50",
"'  c #5D5452",
"]  c #585554",
"[  c #67574F",
"{  c #6A594D",
"}  c #655A4A",
"|  c #745642",
" . c #775944",
".. c #7A5B46",
"X. c #7D5E49",
"o. c #635651",
"O. c #6E6453",
"+. c #7A6D5B",
"@. c #766956",
"#. c #56586D",
"$. c #7D7360",
"%. c #6C6B78",
"&. c #82624B",
"*. c #88664F",
"=. c #8E6B53",
"-. c #896750",
";. c #916E56",
":. c #8E735C",
">. c #957259",
",. c #9B755B",
"<. c #9E785E",
"1. c #967057",
"2. c #A2785D",
"3. c #AA7C5F",
"4. c #837662",
"5. c #927760",
"6. c #A47D62",
"7. c #A87F63",
"8. c #97856F",
"9. c #89817E",
"0. c #948670",
"q. c #968972",
"w. c #9B8C75",
"e. c #AB8266",
"r. c #AF8568",
"t. c #B2876A",
"y. c #B0896E",
"u. c #A5967F",
"i. c #AD9177",
"p. c #B3997E",
"a. c #B2977C",
"s. c #274787",
"d. c #3A528A",
"f. c #294A91",
"g. c #304E91",
"h. c #325293",
"j. c #3C5797",
"k. c #344B85",
"l. c #2C5EAE",
"z. c #2F5AA7",
"x. c #3A5DA4",
"c. c #3D64AE",
"v. c #3561AE",
"b. c #3565B5",
"n. c #3A66B4",
"m. c #3E68B5",
"M. c #3A6ABA",
"N. c #2A61B5",
"B. c #49598F",
"V. c #415389",
"C. c #425891",
"Z. c #405D9F",
"A. c #4C5D94",
"S. c #6D728B",
"D. c #74768A",
"F. c #77798B",
"G. c #6C7492",
"H. c #747A94",
"J. c #797D94",
"K. c #757D9A",
"L. c #717690",
"P. c #415FA2",
"I. c #4260A2",
"U. c #6977A0",
"Y. c #7B8097",
"T. c #7D8299",
"R. c #838289",
"E. c #8A8888",
"W. c #908C8D",
"Q. c #85889A",
"!. c #888C9F",
"~. c #948F93",
"^. c #949094",
"/. c #969398",
"(. c #9E9C9C",
"). c #AB9C83",
"_. c #A79881",
"`. c #B09A80",
"'. c #A19F9F",
"]. c #B6A68C",
"[. c #B9A68B",
"{. c #BAA98E",
"}. c #BDAD92",
"|. c #BEB095",
" X c #8A8EA1",
".X c #9A9EAD",
"XX c #8E96B1",
"oX c #929BB6",
"OX c #9DA1AF",
"+X c #A6A9B3",
"@X c #ABADB5",
"#X c #A7AAB7",
"$X c #AEB1BC",
"%X c #C0AF92",
"&X c #C1B195",
"*X c #C5B599",
"=X c #C8B89C",
"-X c None",
/* pixels */
"-X-X-X-X-X-X-X-X-X-X-X-X-X-X-X-X-X-X-X-X-X-X-X-X-X-X-X-X-X-X-X-X-X-X-X-X-X-X-X-X-X-X-X-X-X-X-X-X-X-X",
"-X-X-X-X-X-X-X-X-X-X                      -X-X-X            -X-X-X-X-X-X-X-X-X-X-X-X-X-X-X-X-X-X-X-X",
"-X-X-X-X-X-X-X-X-X-X                      -X-X-X            -X-X-X-X-X-X-X-X-X-X-X-X-X-X-X-X-X-X-X-X",
"-X-X-X-X-X-X-X-X-X-X.   3 b l b l b u r r 2   $ k m i .   .   .   .   -X-X-X-X-X-X-X-X-X-X-X-X-X-X-X",
"-X-X-X-X-X-X-X-X-X-X.   0 S S B B S n t i $   + z S n .               -X-X-X-X-X-X-X-X-X-X-X-X-X-X-X",
"-X-X-X-X-X-X-X-X-X-X.   3 l l m N N z k k 8 . 3 n B n 2 + 2 8 8 8 8 8 -X-X-X-X-X-X-X-X-X-X-X-X-X-X-X",
"-X-X-X-X-X-X-X-X-X-X          r B N N N B l u k m B m k u b N B B B B r   . -X-X-X-X-X-X-X-X-X-X-X-X",
"-X-X-X-X-X-X-X-X-X-X          r B N N N N k t i N B m i r l N N N N B r     -X-X-X-X-X-X-X-X-X-X-X-X",
"-X-X-X-X-X-X-X.   + r r i n n n B N N N N m m m N N N n N N N N N N B N z z 8   + -X-X-X-X-X-X-X-X-X",
"-X-X-X-X-X-X-X    + u u k B B B N N N N N N N B N N N B N N N N N N N N V B 3     -X-X-X-X-X-X-X-X-X",
"-X-X-X-X-X-X-X2 $ 8 l b n N N N N N N N N N N N N N N N N N N N N N N N N N i 0 y -X-X-X-X-X-X-X-X-X",
"-X-X-X-X.   . u i k N B N N N N N N N B N N N N N N N N N N N N N N N N N N N V N $   . -X-X-X-X-X-X",
"-X-X-X-X    . u u k N N N N N N N N N N N N N B N N N N B N N N N N B N N N N B m $   . -X-X-X-X-X-X",
"-X-X-X-X.   X r u k N N N N N n k k n N N N N N N N N k k k k k n B B B N N N N m $   + -X-X-X-X-X-X",
"-X-X-X-X    . r u k N B N N B n t u n N N N N N N B m u u r 1 > t l l N B N N N m %     -X-X-X-X-X-X",
"-X-X-X-X.   . r i i n n n n n k u u n N N N N N N B m k r B .. . .&.&.H k n N B m e 2 3 -X-X-X-X-X-X",
"-X-X-X-XX   . r k t t t t u u u u u n N N N N N N B m k . K 7.e.7.7.r. .  i n B N k k 0     . -X-X-X",
"-X-X-X-X    . r u t k k k t k u k u n B N N N N N N m m 0 L 7.7.6.6.6...0 m m B m k u t .     -X-X-X",
"-X-X-X-X    . u u k m N z u k u k k n N N N N m n 0 S ,.2.2.6.6.6.6.6.6.5.2.H 4 v u k 0     . -X-X-X",
"-X-X-X-XX   . r u k N V n u t r > > l V N N N N u   V 7.r.7.2.2.2.2.2.7.t.r.J > b u i t .     -X-X-X",
"-X-X-X-XX   . u u k m N N z k H &.&.H k n N N B ..&.X.X.| :.`.p.p.p.`.5.| X.n o 0 t k 0 .     -X-X-X",
"-X-X-X-X    . r k k N N N V l &.r.r. .  u m m S ,.t.>.p   O.&X&X}.}.&X$.  =       t k r .   . -X-X-X",
"-X-X-X-X.   . r u k m N N B l ..7.7...k N M z S 5.y.>.M   +.%X}.}.}.&X$.  a +   + t u r     -X-X-X-X",
"-X-X-X-X    . u u t k u k B l &.7.6.6.6.6.| . D `.=X_.C   +.%X}.}.}.&X$.  a .       .   -X-X-X-X-X-X",
"-X-X-X-X    . u i u i u k V l &.6.6.6.7.7.H   M ).=X_.w   O.}.}.}.}.&X+.      X         -X-X-X-X-X-X",
"-X-X-X-X-X-X-X2 2 8 i i u m r ..7.6.6.6.6.8.q.w.].*X].w.0.u.}.}.}.}.}._.0.q.F   - -X-X-X-X-X-X-X-X-X",
"-X-X-X-X-X-X-X    + u k u k @ ..r.7.7.7.7.[.=X&X}.}.}.&X*X%X}.}.}.}.}.&X*X&XO.  w -X-X-X-X-X-X-X-X-X",
"-X-X-X-X-X-X-X.   # r r u k 1 | ,.,.,.,.,.`.[.].}.}.}.}.}.}.}.}.}.}.}.].[.[.}   w -X-X-X-X-X-X-X-X-X",
"-X-X-X-X-X-X-X-X-X-X    2 i i u u u i r u ;.7.6.[.|.}.}.}.}.}.}.}.}.}.i.2.6.S   7 -X-X-X-X-X-X-X-X-X",
"-X-X-X-X-X-X-X-X-X-X.   $ i i i u u i r r ;.e.e.{.&X}.}.}.%X%X}.&X*X*Xa.6.e.S   7 -X-X-X-X-X-X-X-X-X",
"-X-X-X-X-X-X-X-X-X-X-X-X-X2 $ 0 i i i i i | P X.W./.~.~.~.~.~./.4.$.+.{ H J -X-X-X-X-X-X-X-X-X-X-X-X",
"-X-X-X-X-X-X-X-X-X-X-X-X-X    2 i i u u u b f C S.K.H.H.H.H.L.K.#.. :       -X-X-X-X-X-X-X-X-X-X-X-X",
"-X-X-X-X-X-X-X-X-X-X-X-X-X7 $ 8 a i k k k N c F D.T.J.Y.J.T.Q. X%.5 v 8 . # -X-X-X-X-X-X-X-X-X-X-X-X",
"-X-X-X-X-X-X-X-X-X-X+   7 i i i u u n B N Z x D D.Y.J.Y.L. X+X$XR.; v 6   . X   . -X-X-X-X-X-X-X-X-X",
"-X-X-X-X-X-X-X-X-X-X      , , 0 u u n B N Z x D D.T.J.J.L. X+X$XR.; v +           -X-X-X-X-X-X-X-X-X",
"-X-X-X-X-X-X-Xp   / u._._._.).4.; u n B N B x D F.J.Y..X.X.X+X$XR.: y  .>.=.=.>.=.b   -X-X-X-X-X-X-X",
"-X-X-X-X-X-X-Xw   / }.*X&X&X=Xw.O i n B N V x A F.J.Q.#X@X@X+X$XR.; y -.r.6.6.r.6.b   6 -X-X-X-X-X-X",
"-X-X-X-X-X-X-Xw   ^ {.|.{.{.&X0.; i n B N V x R G.U.K.XXoXXXXXoXD.: 0 *.e.6.6.6.5.b   6 -X-X-X-X-X-X",
"-X-X-X-X-X-X-Xw   ^ {.|.}.}.*X0.O i n N m Z j R x.b.v.l.l.l.l.N.k.q 0 -.e.6.6.e.,.v   7 -X-X-X-X-X-X",
"-X-X-X-X-X-X-Xp   / {.&X}.{.*Xq.O k z N c N j ^ x.m.c.n.c.c.c.m.d.d 9 -.r.6.6.7.6.b   7 -X-X-X-X-X-X",
"-X-X-X-X-X-X-X-X-X-X/ ( / ^ F _ Y Y d.P.P.Z.P.j.g.s.g.c.M.I.M.I.k.o * a Z M Z Z C -X-X-X-X-X-X-X-X-X",
"-X-X-X-X-X-X-X-X-X-X          I f.s.z.M.b.n.M.n.f.Y f.b.M.b.b.M.s.  &             -X-X-X-X-X-X-X-X-X",
"-X-X-X-X-X-X-X-X-X-X(.'.W.s . U W T V.A.B.d.h.d.Y T E C.C.C.B.A.Q   - E.-X-X-X(.'.-X-X-X-X-X-X-X-X-X",
"-X-X-X-X-X-X-X-X-X-X-X-X-X-     : : d h f             : : < g g :     -X-X-X-X-X-X-X-X-X-X-X-X-X-X-X",
"-X-X-X-X-X-X-X-X-X-X-X-X-X] ~ ] o.' o.{ [ ` ) ) ) ) ` ' o.o.[ { o.! ! -X-X-X-X-X-X-X-X-X-X-X-X-X-X-X",
"-X-X-X-X-X-X-X-X-X-X-X-X-X-X-X-X-X-X-X-X-X-X-X-X-X-X-X-X-X-X-X-X-X-X-X-X-X-X-X-X-X-X-X-X-X-X-X-X-X-X",
"-X-X-X-X-X-X-X-X-X-X-X-X-X-X-X-X-X-X-X-X-X-X-X-X-X-X-X-X-X-X-X-X-X-X-X-X-X-X-X-X-X-X-X-X-X-X-X-X-X-X",
"-X-X-X-X-X-X-X-X-X-X-X-X-X-X-X-X-X-X-X-X-X-X-X-X-X-X-X-X-X-X-X-X-X-X-X-X-X-X-X-X-X-X-X-X-X-X-X-X-X-X",
"-X-X-X-X-X-X-X-X-X-X-X-X-X-X-X-X-X-X-X-X-X-X-X-X-X-X-X-X-X-X-X-X-X-X-X-X-X-X-X-X-X-X-X-X-X-X-X-X-X-X",
"-X-X-X-X-X-X-X-X-X-X-X-X-X-X-X-X-X-X-X-X-X-X-X-X-X-X-X-X-X-X-X-X-X-X-X-X-X-X-X-X-X-X-X-X-X-X-X-X-X-X"
};
