/* XPM */
static char *result[] = {
/* columns rows colors chars-per-pixel */
"50 50 190 2 ",
"   c #010100",
".  c #0B0502",
"X  c #0B0804",
"o  c #120401",
"O  c #1D0000",
"+  c #130A05",
"@  c #190C04",
"#  c #190F09",
"$  c #1E130A",
"%  c #191007",
"&  c #090A14",
"*  c #0C1111",
"=  c #191818",
"-  c #250000",
";  c #2A0100",
":  c #220F02",
">  c #2C0C00",
",  c #350F00",
"<  c #251203",
"1  c #23150C",
"2  c #26190F",
"3  c #29190C",
"4  c #281607",
"5  c #361900",
"6  c #3B1E00",
"7  c #351806",
"8  c #241911",
"9  c #2C1D12",
"0  c #2D1D19",
"q  c #311F11",
"w  c #392108",
"e  c #2C261E",
"r  c #2F2013",
"t  c #352316",
"y  c #392517",
"u  c #32221A",
"i  c #3A2619",
"p  c #3D291B",
"a  c #1F242B",
"s  c #292827",
"d  c #372C23",
"f  c #3A312F",
"g  c #452700",
"h  c #533400",
"j  c #543800",
"k  c #422D1D",
"l  c #46301D",
"z  c #4A331D",
"x  c #503511",
"c  c #54391B",
"v  c #422F22",
"b  c #453123",
"n  c #4B3523",
"m  c #4F3825",
"M  c #44352D",
"N  c #493628",
"B  c #533B27",
"V  c #553D29",
"C  c #583F2B",
"Z  c #453630",
"A  c #4C3C33",
"S  c #463830",
"D  c #523E32",
"F  c #523F3E",
"G  c #5B412B",
"H  c #554235",
"J  c #5C4332",
"K  c #56433B",
"L  c #594539",
"P  c #56493B",
"I  c #595039",
"U  c #644936",
"Y  c #664C39",
"T  c #6C513E",
"R  c #71523F",
"E  c #78573D",
"W  c #00205C",
"Q  c #282D4C",
"!  c #1F3266",
"~  c #273C78",
"^  c #343E70",
"/  c #313969",
"(  c #513F41",
")  c #35436D",
"_  c #564E42",
"`  c #5A5244",
"'  c #5F574A",
"]  c #47485F",
"[  c #695A4A",
"{  c #745642",
"}  c #775944",
"|  c #7A5B46",
" . c #7D5E49",
".. c #6E6453",
"X. c #7A6D5B",
"o. c #766956",
"O. c #56586D",
"+. c #7D7360",
"@. c #6F6E72",
"#. c #82624B",
"$. c #88664F",
"%. c #8D6A53",
"&. c #916E56",
"*. c #8E735C",
"=. c #957259",
"-. c #9B755B",
";. c #9E785E",
":. c #967057",
">. c #A2785D",
",. c #AA7C5F",
"<. c #837662",
"1. c #927760",
"2. c #A47D62",
"3. c #A87F63",
"4. c #97856F",
"5. c #89817E",
"6. c #948670",
"7. c #968972",
"8. c #9B8C75",
"9. c #AB8266",
"0. c #AF8568",
"q. c #B2876A",
"w. c #B0896E",
"e. c #A6977F",
"r. c #AD9177",
"t. c #B3997E",
"y. c #B2977C",
"u. c #284787",
"i. c #374D86",
"p. c #39528B",
"a. c #2A4A91",
"s. c #304E91",
"d. c #3C5491",
"f. c #375699",
"g. c #2C5EAE",
"h. c #355CA6",
"j. c #3D64AE",
"k. c #3561AE",
"l. c #3566B6",
"z. c #3A66B4",
"x. c #3D68B5",
"c. c #3A6ABA",
"v. c #2A61B5",
"b. c #44578F",
"n. c #46588E",
"m. c #405D9F",
"M. c #4A5B93",
"N. c #6D728B",
"B. c #74768A",
"V. c #77798B",
"C. c #6C7492",
"Z. c #747A94",
"A. c #797D94",
"S. c #757D9A",
"D. c #717690",
"F. c #415FA2",
"G. c #4260A2",
"H. c #6977A0",
"J. c #7B8097",
"K. c #7D8299",
"L. c #838289",
"P. c #90898B",
"I. c #85889A",
"U. c #888C9F",
"Y. c #948F93",
"T. c #949094",
"R. c #969398",
"E. c #A69780",
"W. c #A79981",
"Q. c #AB9C83",
"!. c #B09A80",
"~. c #B6A68C",
"^. c #B9A68B",
"/. c #BAA98E",
"(. c #BDAD92",
"). c #BEB095",
"_. c #8A8EA1",
"`. c #9A9EAD",
"'. c #8E96B1",
"]. c #929BB6",
"[. c #9DA1AF",
"{. c #A6A9B3",
"}. c #ABADB5",
"|. c #A7AAB7",
" X c #AEB1BC",
".X c #C0AF92",
"XX c #C1B195",
"oX c #C5B599",
"OX c #C8B89C",
"+X c None",
/* pixels */
"+X+X+X+X+X+X+X+X+X+X+X+X+X+X+X+X+X+X+X+X+X+X+X+X+X+X+X+X+X+X+X+X+X+X+X+X+X+X+X+X+X+X+X+X+X+X+X+X+X+X",
"+X+X+X+X+X+X+X+X+X+X+X+X+X+X+X+X+X+X+X+X            +X+X+X                      +X+X+X+X+X+X+X+X+X+X",
"+X+X+X+X+X+X+X+X+X+X+X+X+X+X+X+X+X+X+X+X+X          +X+X+X                      +X+X+X+X+X+X+X+X+X+X",
"+X+X+X+X+X+X+X+X+X+X+X+X+X+X+X.   .   .     X p m k #   1 t t p n b l b b 2   . +X+X+X+X+X+X+X+X+X+X",
"+X+X+X+X+X+X+X+X+X+X+X+X+X+X+X              . n G m +   $ p i l G B V G V t   . +X+X+X+X+X+X+X+X+X+X",
"+X+X+X+X+X+X+X+X+X+X+X+X+X+X+X3 9 9 9 9 1 + 1 n V m 8 o 9 k k n V B n l b 2   . +X+X+X+X+X+X+X+X+X+X",
"+X+X+X+X+X+X+X+X+X+X+X+XX   t V V B V V b i k m V m k y l B V B B V t           +X+X+X+X+X+X+X+X+X+X",
"+X+X+X+X+X+X+X+X+X+X+X+X    t V B B B B l y p n V m p y v B B B B V t           +X+X+X+X+X+X+X+X+X+X",
"+X+X+X+X+X+X+X+X+X+   9 z m m B B B V B m m m B B B B m m B B B B B m z n p t t +   +X+X+X+X+X+X+X+X",
"+X+X+X+X+X+X+X+X+X    2 V V B B B B B B B V B B B B B V B B B B B B V V B l i i +     +X+X+X+X+X+X+X",
"+X+X+X+X+X+X+X+X+Xt 9 p B B B B B B B B B B B B B B B V B B B B B B B B B n l l 9 1 8 +X+X+X+X+X+X+X",
"+X+X+X+X+X+XX   $ m G V B B V B B V B B B B B V B B B B B B B B V B B B B B B B k p i .   . +X+X+X+X",
"+X+X+X+X+X+Xo   $ m B B B B B B B B B B V B B m B B B B B V B B B B B B B m B B k i i .     +X+X+X+X",
"+X+X+X+X+X+XX   $ m V B B B B V C n k l k k k m V B B V B B B m k p n V B B B B p i t .   . +X+X+X+X",
"+X+X+X+X+X+X    % m V B B V B l l t : 4 t i i m V B B B B B B m t y n V B V V B p p i .     +X+X+X+X",
"+X+X+X+X+X+X2 1 r B V m m k U  .#.| | | C q k m V B B B B B B l p i k n n n m n p p t .   . +X+X+X+X",
"+X+X+X    . y k k m C n k   } 9.3.3.9.9.T . k m V B B B B V V n y p i i i i y y i p t X     +X+X+X+X",
"+X+X+X.     t i p B B n n q } 9.2.>.3.3.R q n m B B B B B B B n y p p i i p k i i k y .   . +X+X+X+X",
"+X+X+X.     t p i v 4 U ;.>.>.2.2.3.2.2.>.;.-.J q n B V B B B n p k p p p n B m k i y .     +X+X+X+X",
"+X+X+X    . t p i b : T 3.0.2.>.>.>.>.>.3.0.9.C   y n V B B C l < < t y i m V B k i t .   . +X+X+X+X",
"+X+X+X.     t k y t o n  .R 1.t.t.y.!.!.=.{  . .#.| V m B n k U #.#.U k n m B B k i t .   . +X+X+X+X",
"+X+X+X    . t k y       *   +.oX(..X).oX..  s =.q.-.J m m i   } 0.0.#.l V B B B k i y .     +X+X+X+X",
"+X+X+X+X    t p t +   . d   +.XX(.(.(.(.X.  M =.w.;.J n V V k | 2.2.#.l V B B B k i i .     +X+X+X+X",
"+X+X+X+X+X+X  .       . d   <.XX(.(.(..XX.  A W.OXQ.L   { >.2.2.,.3. .l V b i p i p t X   . +X+X+X+X",
"+X+X+X+X+X+X        X       X.XX(.(.(.(...  e e.OXQ.N   U 3.9.,.2.9.#.l C v i p i k y X     +X+X+X+X",
"+X+X+X+X+X+X+X+X+X8   P 7.6.W.(.(.(.(.(.e.6.8.~.XX^.8.7.4.2.2.2.2.3.| w n p i i 9 2 1 +X+X+X+X+X+X+X",
"+X+X+X+X+X+X+X+X+Xs   ..oXoX(.(.(.(.(.(..XoXXXXX(.XXXXOX^.2.2.9.2.9.| @ k i p p +     +X+X+X+X+X+X+X",
"+X+X+X+X+X+X+X+X+Xe   [ ~.^./.(.(.(.(.(.(.(.(./.(./.^.^.t.-.-.=.-.;.R 4 k i i t @   X +X+X+X+X+X+X+X",
"+X+X+X+X+X+X+X+X+X8   H 2.>.r.(.(.(.(.(.(.(.(.(.(.^.9.3.&.i t p p i i p p $   . +X+X+X+X+X+X+X+X+X+X",
"+X+X+X+X+X+X+X+X+X8   J 3.2.y.oX.XXX.X(.).(.(.(.XX/.9.9.=.y t p i i p p p $     +X+X+X+X+X+X+X+X+X+X",
"+X+X+X+X+X+X+X+X+X+X+X+XT U [ <.+.<.R.Y.T.T.T.Y.R.P. .{ T p i p p p q $ 1 +X+X+X+X+X+X+X+X+X+X+X+X+X",
"+X+X+X+X+X+X+X+X+X+X+X+X      - . O.S.D.Z.Z.Z.Z.S.N.A g n y y p p p 1     +X+X+X+X+X+X+X+X+X+X+X+X+X",
"+X+X+X+X+X+X+X+X+X+X+X+X% X 0 b 5 @._._.S.A.A.A.I.B.L c V k k k i k 9 # $ +X+X+X+X+X+X+X+X+X+X+X+X+X",
"+X+X+X+X+X+X+X+X+X. .   .   2 d - L. X|._.Z.S.V.S.V.L x D B V n i i i v p 2   * +X+X+X+X+X+X+X+X+X+X",
"+X+X+X+X+X+X+X+X+X          @ v - L.|.{.U.Z.A.Z.K.B.L x V B B n i v 7 ; >       +X+X+X+X+X+X+X+X+X+X",
"+X+X+X+X+X+X+X  N %.=.%.%.=.| u ; L.|.{.`.`.`.I.A.B.F x V B B n p ; <.Q.e.e.Q.W.`   +X+X+X+X+X+X+X+X",
"+X+X+X+X+X+X8   b 2.0.2.2.0.$.u ; L. X}.}. X|.I.A.V.L x C B V n d O 7.OXXX).oX(.`   e +X+X+X+X+X+X+X",
"+X+X+X+X+X+X8   b ;.3.>.2.9.#.u ; B.].'.'.'.'.K.H.C.L x D B V n p - 7.XX/./.).~._   e +X+X+X+X+X+X+X",
"+X+X+X+X+X+X8   d 2.9.2.2.9.$.0 6 i.v.g.g.g.g.k.l.h.( j D m V z p O 7.oX(.(.XX~._   e +X+X+X+X+X+X+X",
"+X+X+X+X+X+X0   b ;.9.2.2.0.$.0 g i.x.j.j.z.j.z.z.h.F j V c B z p O 7.oX(.(.XX/.`   d +X+X+X+X+X+X+X",
"+X+X+X+X+X+X+X+X+XH D A A D b & o u.G.z.j.j.k.s.u.s.f.F.m.m.h.i.~ ~ ] I _ ` ' [ +X+X+X+X+X+X+X+X+X+X",
"+X+X+X+X+X+X+X+X+X            &   u.c.c.z.x.l.a.~ s.x.x.z.z.c.h.u.a.W           +X+X+X+X+X+X+X+X+X+X",
"+X+X+X+X+X+X+X+X+X+X+X+X+X+X@.    ) M.n.b.b.d.) ! ~ s.s.p.n.M.b./ ^ Q   = @.+X+X+X+X+X+X+X+X+X+X+X+X",
"+X+X+X+X+X+X+X+X+X+X+X+X+X+X+X    6 j h w , ,           - h j g 5 5 <     +X+X+X+X+X+X+X+X+X+X+X+X+X",
"+X+X+X+X+X+X+X+X+X+X+X+X+X+X+X  s Z K H F Z S s s s s a f H L D M M f = = +X+X+X+X+X+X+X+X+X+X+X+X+X",
"+X+X+X+X+X+X+X+X+X+X+X+X+X+X+X+X+X+X+X+X+X+X+X+X+X+X+X+X+X+X+X+X+X+X+X+X+X+X+X+X+X+X+X+X+X+X+X+X+X+X",
"+X+X+X+X+X+X+X+X+X+X+X+X+X+X+X+X+X+X+X+X+X+X+X+X+X+X+X+X+X+X+X+X+X+X+X+X+X+X+X+X+X+X+X+X+X+X+X+X+X+X",
"+X+X+X+X+X+X+X+X+X+X+X+X+X+X+X+X+X+X+X+X+X+X+X+X+X+X+X+X+X+X+X+X+X+X+X+X+X+X+X+X+X+X+X+X+X+X+X+X+X+X",
"+X+X+X+X+X+X+X+X+X+X+X+X+X+X+X+X+X+X+X+X+X+X+X+X+X+X+X+X+X+X+X+X+X+X+X+X+X+X+X+X+X+X+X+X+X+X+X+X+X+X",
"+X+X+X+X+X+X+X+X+X+X+X+X+X+X+X+X+X+X+X+X+X+X+X+X+X+X+X+X+X+X+X+X+X+X+X+X+X+X+X+X+X+X+X+X+X+X+X+X+X+X"
};
