/* XPM */
static char *result[] = {
/* columns rows colors chars-per-pixel */
"50 50 142 2 ",
"   c #010000",
".  c #0D0502",
"X  c #0E0903",
"o  c #160000",
"O  c #1B0000",
"+  c #130B06",
"@  c #1D130B",
"#  c #000314",
"$  c #050917",
"%  c #131316",
"&  c #12111C",
"*  c #1A1A1C",
"=  c #200D00",
"-  c #261405",
";  c #281607",
":  c #21140B",
">  c #26190D",
",  c #291B0F",
"<  c #211610",
"1  c #2D1D11",
"2  c #311F11",
"3  c #352000",
"4  c #3D2500",
"5  c #38240C",
"6  c #332215",
"7  c #382517",
"8  c #3E2912",
"9  c #33241A",
"0  c #3A2619",
"q  c #3D291A",
"w  c #00003B",
"e  c #242425",
"r  c #292624",
"t  c #3D2C21",
"y  c #312F3D",
"u  c #402800",
"i  c #543701",
"p  c #563900",
"a  c #422D1E",
"s  c #45301F",
"d  c #4D351C",
"f  c #543A13",
"g  c #543919",
"h  c #422E21",
"j  c #453121",
"k  c #4B3522",
"l  c #4F3825",
"z  c #4A3629",
"x  c #4D392B",
"c  c #533B27",
"v  c #543C29",
"b  c #583F2A",
"n  c #4E3936",
"m  c #4C3B3E",
"M  c #533D30",
"N  c #523E3A",
"B  c #58402F",
"V  c #5E4432",
"C  c #604632",
"Z  c #634835",
"A  c #614838",
"S  c #694F3C",
"D  c #16244E",
"F  c #162956",
"G  c #192955",
"H  c #3A3653",
"J  c #353A57",
"K  c #3D3854",
"L  c #1A316A",
"P  c #1D3876",
"I  c #2B3360",
"U  c #26386E",
"Y  c #3B3B67",
"T  c #31396C",
"R  c #223A76",
"E  c #213D7B",
"W  c #2B3D7A",
"Q  c #343F70",
"!  c #443B57",
"~  c #413B5A",
"^  c #3D416D",
"/  c #28407F",
"(  c #494847",
")  c #545355",
"_  c #735641",
"`  c #7D5E47",
"'  c #7D5E48",
"]  c #615A57",
"[  c #7E604C",
"{  c #4A4769",
"}  c #4B4D74",
"|  c #40497A",
" . c #626161",
".. c #82624B",
"X. c #89674F",
"o. c #876853",
"O. c #8C6952",
"+. c #8C6B5D",
"@. c #946F55",
"#. c #957057",
"$. c #967159",
"%. c #9A745B",
"&. c #A27A5D",
"*. c #856766",
"=. c #9D7760",
"-. c #8C6F70",
";. c #A57D62",
":. c #82807E",
">. c #AC8266",
",. c #AE8468",
"<. c #B28662",
"1. c #B2876B",
"2. c #B3886A",
"3. c #153E87",
"4. c #253F82",
"5. c #0D418C",
"6. c #1C418A",
"7. c #274184",
"8. c #294485",
"9. c #264489",
"0. c #29458A",
"q. c #294A90",
"w. c #2E549D",
"e. c #3A5494",
"r. c #355AA3",
"t. c #3F5FA4",
"y. c #3E62A9",
"u. c #3766B6",
"i. c #3966B5",
"p. c #3A68B6",
"a. c #3569BC",
"s. c #3A69B9",
"d. c #45568D",
"f. c #46588F",
"g. c #435B98",
"h. c #7A7B87",
"j. c #405FA3",
"k. c #4162A7",
"l. c #959494",
"z. c #9D9998",
"x. c #A5A4A4",
"c. c None",
/* pixels */
"c.c.c.c.c.c.c.c.c.c.c.c.c.c.c.c.c.c.c.c.c.c.c.c.c.c.c.c.c.c.c.c.c.c.c.c.c.c.c.c.c.c.c.c.c.c.c.c.c.c.",
"c.c.c.c.c.c.c.c.c.c.c.c.c.c.c.c.          c.c.c.                      c.c.c.c.c.c.c.c.c.c.c.c.c.c.c.",
"c.c.c.c.c.c.c.c.c.c.c.c.c.c.c.c.      . . c.c.c.      . .     .       c.c.c.c.c.c.c.c.c.c.c.c.c.c.c.",
"c.c.c.c.c.c.c.c.c.c.c.      .   X   1 l l 6   X 6 0 a l l l k l 1   . c.c.c.c.c.c.c.c.c.c.c.c.c.c.c.",
"c.c.c.c.c.c.c.c.c.c.c.              6 b v 6   . 6 q a c c b b b 1   . c.c.c.c.c.c.c.c.c.c.c.c.c.c.c.",
"c.c.c.c.c.c.c.c.    , 6 1 q s q h q j c v a , 7 j k d c b s 1 6 @   . c.c.c.c.c.c.c.c.c.c.c.c.c.c.c.",
"c.c.c.c.c.c.c.c.    1 q q c b b b b c c v s 7 q c b v l B q           c.c.c.c.c.c.c.c.c.c.c.c.c.c.c.",
"c.c.c.c.c.c.c.c.    6 j a l c c c c c c v d q j l c c c v j 1 1 > : @ c.c.c.c.c.c.c.c.c.c.c.c.c.c.c.",
"c.c.c.c.c.c.c.c.    q b c c c c c c c v c c c b v c c c c v v v h q 0 X     c.c.c.c.c.c.c.c.c.c.c.c.",
"c.c.c.c.c.c.c.c.X   q b c c c c c c c c c c c c c c c c c c c c a q q +   + c.c.c.c.c.c.c.c.c.c.c.c.",
"c.c.c.c.c..   @ 0 0 j v c c c c c c c c c c c c c c c c c c c c c c l q 0 6     c.c.c.c.c.c.c.c.c.c.",
"c.c.c.c.c.    : q 0 k v c c c c c c c c c c c c c c v c c c c c c c c a q 6     c.c.c.c.c.c.c.c.c.c.",
"c.c.c.c.c.    @ q 0 k c c c c c c c c b c c v c c c c c c c c c c c c q q 6     c.c.c.c.c.c.c.c.c.c.",
"c.c.c.c.c..   : q 0 j b c c c c c c c c c c c c c c c c c c c c c c l q q 6     c.c.c.c.c.c.c.c.c.c.",
"c.c.c.c.c..   : q 0 d c c c c c c c c c c c c c v c c c c c c c c c c q q 6     c.c.c.c.c.c.c.c.c.c.",
"c.c.c.c.c.    @ q 0 k c c c c c c c c c c c c c c c c c c c v c c c c q q 6     c.c.c.c.c.c.c.c.c.c.",
"c.c.c.c.c..   : q 0 d c c c c c c c c c c c c c c c c c c c c c c c l q q 6     c.c.c.c.c.c.c.c.c.c.",
"c.c.c.c.c.    : q 0 0 q q k v c c c c c c c c c c c c c c c c c a 0 q q q 2     c.c.c.c.c.c.c.c.c.c.",
"c.c.c.c.c.    : q q 0 0 0 c v v c v c c c c c c c c c c c c b c h 0 q 0 a 2     c.c.c.c.c.c.c.c.c.c.",
"c.c.c.c.c.c.c.c.@ + 2 q 0 a a a a a d v c c c c c b l h a a a a q q q 0 q 2     c.c.c.c.c.c.c.c.c.c.",
"c.c.c.c.c.c.c.c.    1 q 0 0 0 0 q 7 a v v v c c c b l 0 0 0 0 0 0 q q q a 6     c.c.c.c.c.c.c.c.c.c.",
"c.c.c.c.c.c.c.c.    1 a q q q q q 0 a d k d k k k k j q q q 0 q q t q 1 1 1 c.  c.c.c.c.c.c.c.c.c.c.",
"c.c.c.c.c.c.c.c.    : 2 2 0 q q q q 0 0 0 0 0 0 0 0 0 q q q q q 2 2 1       c.c.c.c.c.c.c.c.c.c.c.c.",
"c.c.c.c.c.c.c.c.    h C B j 0 q q q q q 0 0 q 0 q 0 q q q q q 0 v V b @   X c.c.c.c.c.c.c.c.c.c.c.c.",
"c.c.c.c.c.c.c.c.+   ' ,.;.V - a 0 0 q 0 0 q q q 0 q q 0 0 q 0 6 O.,.%.t   < c.c.c.c.c.c.c.c.c.c.c.c.",
"c.c.c.c.c.c.c.c.+   ' ,.;.A = q 7 0 0 q q q q q q q q 0 0 0 6 2 O.,.%.t   < c.c.c.c.c.c.c.c.c.c.c.c.",
"c.c.c.c.c.c.c.c.c.c.z z z O.%.$.$.%...6 a q q q a 2 C $.%.$.$.%.S j x c.c.c.c.c.c.c.c.c.c.c.c.c.c.c.",
"c.c.c.c.c.c.c.c.c.c.c.    $.1.>.;.1.X.  ; ; - - 2   V ;.>.;.,.<.A     c.c.c.c.c.c.c.c.c.c.c.c.c.c.c.",
"c.c.c.c.c.c.c.c.c.c.c.  + _ ....;.;.$...............X.;.;.@.....z   @ c.c.c.c.c.c.c.c.c.c.c.c.c.c.c.",
"c.c.c.c.c.c.c.c.c.c.c.    j u C ;.;.;.,.,.<.>.>.>.>.>.;.1...5 d >   . c.c.c.c.c.c.c.c.c.c.c.c.c.c.c.",
"c.c.c.c.c.c.c.c.c.c.c.    x c C #.$.#.#.#.#.#.#.@.#.$.$.%.' l b 6   + c.c.c.c.c.c.c.c.c.c.c.c.c.c.c.",
"c.c.c.c.c.c.c.c.c.c.c.    k b c l k l k k l k k d d d d d d c c ,     c.c.c.c.c.c.c.c.c.c.c.c.c.c.c.",
"c.c.c.c.c.c.c.c.c.c.c.    j b c v c v c v c b c v M M M M M v v 9 . @ c.c.c.c.c.c.c.c.c.c.c.c.c.c.c.",
"c.c.c.c.c.c.c.c.c.c.c.    0 t h v v M v M M g N g.y.t.t.y.e.W 7.*.&.$.t   < c.c.c.c.c.c.c.c.c.c.c.c.",
"c.c.c.c.c.c.c.c.c.c.c.    3 4 u p i p p i c p M y.a.p.u.a.r.6.5.-.,.=.t   < c.c.c.c.c.c.c.c.c.c.c.c.",
"c.c.c.c.c.c.c.c.c.c.c.    I T Q d.d.d.d.d.^ Y ^ } } } } } { ~ K +.>.$.t   < c.c.c.c.c.c.c.c.c.c.c.c.",
"c.c.c.c.c.c.c.c.c.c.c.    4.9.q.i.p.p.i.s.w.6.0.n p i i i p f i #.<.=.t   @ c.c.c.c.c.c.c.c.c.c.c.c.",
"c.c.c.c.c.c.c.c.c.c.c.    E 7.9.r.r.r.r.r.8.L U m c n M M v c x [ $.o.j   c.c.c.c.c.c.c.c.c.c.c.c.c.",
"c.c.c.c.c.c.c.c.c.c.c.    R 0.4.7.7.4.7.7.D   . d v c c c c v c       c.c.c.c.c.c.c.c.c.c.c.c.c.c.c.",
"c.c.c.c.c.c.c.c.c.c.) X & R 9.7.7.7.7.7.0.G   & l v v v c v v M ]  . .c.c.c.c.c.c.c.c.c.c.c.c.c.c.c.",
"c.c.c.c.c.c.c.c.c.c.x.  % P 0.7.7.7.7.7.0.F   #           X   r c.c.c.c.c.c.c.c.c.c.c.c.c.c.c.c.c.c.",
"c.c.c.c.c.c.c.c.c.c.c.  * P 0.7.9.9.9.7.9.F   $               e c.c.c.c.c.c.c.c.c.c.c.c.c.c.c.c.c.c.",
"c.c.c.c.c.c.c.c.c.c.c.c.c.h.w J H K K K K y   ) c.c.c.c.c.c.c.c.c.c.c.c.c.c.c.c.c.c.c.c.c.c.c.c.c.c.",
"c.c.c.c.c.c.c.c.c.c.c.c.c.:.    o o o o o     ( c.c.c.c.c.c.c.c.c.c.c.c.c.c.c.c.c.c.c.c.c.c.c.c.c.c.",
"c.c.c.c.c.c.c.c.c.c.c.c.c.c.c.z.z.z.z.z.z.z.l.c.c.c.c.c.c.c.c.c.c.c.c.c.c.c.c.c.c.c.c.c.c.c.c.c.c.c.",
"c.c.c.c.c.c.c.c.c.c.c.c.c.c.c.c.c.c.c.c.c.c.c.c.c.c.c.c.c.c.c.c.c.c.c.c.c.c.c.c.c.c.c.c.c.c.c.c.c.c.",
"c.c.c.c.c.c.c.c.c.c.c.c.c.c.c.c.c.c.c.c.c.c.c.c.c.c.c.c.c.c.c.c.c.c.c.c.c.c.c.c.c.c.c.c.c.c.c.c.c.c.",
"c.c.c.c.c.c.c.c.c.c.c.c.c.c.c.c.c.c.c.c.c.c.c.c.c.c.c.c.c.c.c.c.c.c.c.c.c.c.c.c.c.c.c.c.c.c.c.c.c.c.",
"c.c.c.c.c.c.c.c.c.c.c.c.c.c.c.c.c.c.c.c.c.c.c.c.c.c.c.c.c.c.c.c.c.c.c.c.c.c.c.c.c.c.c.c.c.c.c.c.c.c.",
"c.c.c.c.c.c.c.c.c.c.c.c.c.c.c.c.c.c.c.c.c.c.c.c.c.c.c.c.c.c.c.c.c.c.c.c.c.c.c.c.c.c.c.c.c.c.c.c.c.c."
};
