/* XPM */
static char *result[] = {
/* columns rows colors chars-per-pixel */
"50 50 180 2 ",
"   c #010000",
".  c #0B0301",
"X  c #01020A",
"o  c #0F0803",
"O  c #150000",
"+  c #140A05",
"@  c #1A0C04",
"#  c #1D120A",
"$  c #1C1204",
"%  c #000019",
"&  c #1B1818",
"*  c #2B0200",
"=  c #210F02",
"-  c #230000",
";  c #22160C",
":  c #291709",
">  c #2B1A0E",
",  c #261709",
"<  c #3D1400",
"1  c #3A1E00",
"2  c #301D0F",
"3  c #351700",
"4  c #2D1D12",
"5  c #221F1B",
"6  c #251A15",
"7  c #311F13",
"8  c #371F1E",
"9  c #262000",
"0  c #3D2300",
"q  c #26231C",
"w  c #29231F",
"e  c #2F2013",
"r  c #342215",
"t  c #382516",
"y  c #3D2914",
"u  c #352519",
"i  c #3A2619",
"p  c #3D291B",
"a  c #000032",
"s  c #141A35",
"d  c #272525",
"f  c #3D2A23",
"g  c #342528",
"h  c #3D342A",
"j  c #442A03",
"k  c #492D13",
"l  c #432E1E",
"z  c #45301F",
"x  c #49331E",
"c  c #583E1C",
"v  c #422F23",
"b  c #463121",
"n  c #4B3523",
"m  c #4F3825",
"M  c #43342B",
"N  c #4E392A",
"B  c #44382E",
"V  c #533B27",
"C  c #553D28",
"Z  c #583F2B",
"A  c #503722",
"S  c #473A33",
"D  c #5C422E",
"F  c #4B4136",
"G  c #5D4533",
"H  c #564839",
"J  c #614635",
"K  c #664A36",
"L  c #6A4E3B",
"P  c #664B38",
"I  c #66513E",
"U  c #72543F",
"Y  c #0E1D42",
"T  c #152449",
"R  c #392E41",
"E  c #38304A",
"W  c #3F3C57",
"Q  c #173067",
"!  c #263467",
"~  c #2F396D",
"^  c #303D6B",
"/  c #2E3B71",
"(  c #323D70",
")  c #3C4065",
"_  c #3C436B",
"`  c #5C5345",
"'  c #695646",
"]  c #725440",
"[  c #765945",
"{  c #795B46",
"}  c #7C5F4A",
"|  c #796755",
" . c #404B79",
".. c #686777",
"X. c #7D7B7B",
"o. c #85644C",
"O. c #8E6C55",
"+. c #866B56",
"@. c #926D55",
"#. c #967259",
"$. c #9B755C",
"%. c #9F785E",
"&. c #A57857",
"*. c #A4795D",
"=. c #9A7A6A",
"-. c #987A62",
";. c #807F7E",
":. c #9C7F73",
">. c #837865",
",. c #A57D62",
"<. c #AA7E62",
"1. c #8F826D",
"2. c #86807E",
"3. c #9D8075",
"4. c #AA8165",
"5. c #AD866A",
"6. c #AC896E",
"7. c #B1866A",
"8. c #AB8E74",
"9. c #AD9176",
"0. c #A2937C",
"q. c #AD977B",
"w. c #B0967C",
"e. c #253E81",
"r. c #274285",
"t. c #294385",
"y. c #25448B",
"u. c #2A468A",
"i. c #3A4F84",
"p. c #374E84",
"a. c #3A5696",
"s. c #0051B0",
"d. c #1F5EB4",
"f. c #295AA9",
"g. c #3A5DA3",
"h. c #385FA9",
"j. c #245FB3",
"k. c #3D61A5",
"l. c #3A61AB",
"z. c #3663AE",
"x. c #2961B4",
"c. c #3162B1",
"v. c #3D68B6",
"b. c #5D6C9A",
"n. c #7B7F95",
"m. c #757C94",
"M. c #4266AE",
"N. c #767FA6",
"B. c #677DB2",
"V. c #3C6FC3",
"C. c #7B829B",
"Z. c #6F80AF",
"A. c #7283B2",
"S. c #898789",
"D. c #8C8992",
"F. c #9A969C",
"G. c #AA9B82",
"H. c #B39D83",
"J. c #A19A9C",
"K. c #B6A286",
"L. c #B5A58B",
"P. c #BBAB8F",
"I. c #B8A68C",
"U. c #BDAD92",
"Y. c #BFB095",
"T. c #8A8BA2",
"R. c #9795A3",
"E. c #9FA2AF",
"W. c #9EA3B3",
"Q. c #A6A4A4",
"!. c #A9A6A4",
"~. c #B4AEA8",
"^. c #AAACB5",
"/. c #A2A6B3",
"(. c #AFB2BB",
"). c #C6B38E",
"_. c #C1B195",
"`. c #C5B599",
"'. c #C8B694",
"]. c None",
/* pixels */
"].].].].].].].].].].].].].                    ].].].          ].].].].].].].].].].].].].].].].].].].",
"].].].].].].].].].].].].].                    ].].].          ].].].].].].].].].].].].].].].].].].].",
"].].].].].].].].].].].].].    r z l b b l r r #   ; b z 4     o . o . . ].].].].].].].].].].].].].].",
"].].].].].].].].].].].].].    l D Z Z Z n i p $   # Z Z i               ].].].].].].].].].].].].].].",
"].].].].].].].].].].].].].    4 l p m V m z z r # r V Z p ; > u t t t u ].].].].].].].].].].].].].].",
"].].].].].].].].].].].].].          n Z V V Z z i p V V b i p V Z C C D ;     ].].].].].].].].].].].",
"].].].].].].].].].].].].].@ + # ; ; m V V V V b p l V C b p l V V V V V r # ; ].].].].].].].].].].].",
"].].].].].].].].].].    + i i b V V V V V V V V V C C V V V V V V V V V V C n     ].].].].].].].].].",
"].].].].].].].].].].    + i i b Z V V V V V V V V V V C V V V V V V V V V Z b     ].].].].].].].].].",
"].].].].].].].].    4 t i n m V V V V V V C V V C V V V V V V V V V V V V V V n n r     ].].].].].].",
"].].].].].].].].    r p p V C V V V Z V C V V V V V V V V Z C V V V V V V V V V D t     ].].].].].].",
"].].].].].].].].    r i p V V V V V b b n V V V V V V C n b b n n m Z Z V V V V C r   o ].].].].].].",
"].].].].].].].].    7 p l V C V C Z p r l Z V V V V V C z t u : $ r x x V Z V V Z r     ].].].].].].",
"].].].].].].].].    7 p p n V n n n l i l V V V V V V V n p l K L L U U Z n V V V u + # ].].].].].].",
"].].].].].].].].    7 p p i i i i i i i l Z V V V V V C x > l -.4.,.,.4.G @ p C Z b p i o   ].].].].",
"].].].].].].].].    7 p i p p p p p i i l C V V V C V C n v m *.,.,.,.<.K p n V V l i i     ].].].].",
"].].].].].].].].    7 p l V V b i i l p x V C V V m z 7 o.*.$.,.,.,.,.,.$.-.@.t l i i t .   ].].].].",
"].].].].].].].].    7 p i V C b i i 7 : i V V V C m 2   o.7.,.*.,.,.*.,.,.7.$.7 i l p y     ].].].].",
"].].].].].].].].    7 p l A V V n n o.@.} l n V m J @.@.{ G ] G.K.H.H.K.| J G # ; 7 p i     ].].].].",
"].].].].].].].].    7 i l V V C V C *.7.O.  = n m K *.<.]   5 P._.Y._._.`         4 l i .     ].].].",
"].].].].].].].].    r p p n n V V V $.,.#.] [ G l ' 9.w.|   B I.U.U.U.U.' O d     ; e 4 X   ].].].].",
"].].].].].].].].    r p p i t b V C ,.,.,.,.4.K   H _.`.>.  6 I.U.U.U._.`               ].].].].].].",
"].].].].].].].].    4 t u i i b m V $.,.,.,.,.} H | U._.>.h ` U._.U.U.U.| F F         . ].].].].].].",
"].].].].].].].].].].    + i p p i p $.,.,.,.,.H.U.P.U._.U.P.U.U.U.U.U.U.U.Y.G.    ].].].].].].].].].",
"].].].].].].].].].].    o i p p i p $.4.,.,.,.K.U.U.U.U.U.U.U.U.U.U.U.U.U._.G.  . ].].].].].].].].].",
"].].].].].].].].].].].].].# + 4 p p G J J J D %.6.8.U.U.U.U.U.U.U.U.U.U.9.6.-.    ].].].].].].].].].",
"].].].].].].].].].].].].].    > l i 2 : > > . @.<.5.Y._._._.U._.Y.Y.Y.Y.6.<.#.    ].].].].].].].].].",
"].].].].].].].].].].].].].].].; > 4 p l b n b { o.O.q.q.w.w.G.w.w.w.w.q.+.{ [ ].].].].].].].].].].].",
"].].].].].].].].].].].].].].].].    i i z C C x k J *.*.*.&.&.&.$.,.,.<.M     ].].].].].].].].].].].",
"].].].].].].].].].].].].].].].].    i i l C V Z m K $.#.=.:.:.:.:.=.@.#.N   ; ].].].].].].].].].].].",
"].].].].].].].].].].].].].].].].    i i v V V A x A n j ..n.m.m.C...* u +     ].].].].].].].].].].].",
"].].].].].].].].].].].].].].].].    t i l C V Z G G J C ..n.n.n.D...3 f #     ].].].].].].].].].].].",
"].].].].].].].].].].].].].].].].    i f M C k 3.P.L.L.L.!././.E./.D.* f #     ].].].].].].].].].].].",
"].].].].].].].].].].].].].].].].    1 1 j Z k G.`.Y.Y.U.~.^.^.^.(.D.* j #     ].].].].].].].].].].].",
"].].].].].].].].].].].].].].].].  X p.a. .x u G.Y.P.P.U.R.B.A.A.A.b.! ( s     ].].].].].].].].].].].",
"].].].].].].].].].].].].].].].].  X l.V.a.< - q.'.).).).T.s.f.j.j.f.r.y.Y   X ].].].].].].].].].].].",
"].].].].].].].].].].].].].].].; , ; p.a.i._ ^ D.F.F.F.F.C.c.M.g.h.a.e.u.Y   X ].].].].].].].].].].].",
"].].].].].].].].].].].].].    4 l p 0 < _ v.v.x.d.x.x.d.c.v.z.r.e.e.e.y.Y   X ].].].].].].].].].].].",
"].].].].].].].].].].].].].    4 p i f 0 ) l.k.k.l.k.k.k.l.l.h.u.e.r.r.y.Y   X ].].].].].].].].].].].",
"].].].].].].].].].].].].].    6 p p p p 4 % % % % % %   Q u.r.r.r.r.r.r.Y   X ].].].].].].].].].].].",
"].].].].].].].].].].].].].    > p t p y f q q q q q d 9 ! y.y.y.r.r.r.y.Y   X ].].].].].].].].].].].",
"].].].].].].].].].].].].].& & 5 w w d   S.].].].].].].].R.a T _ r./ R E g r 7     ].].].].].].].].].",
"].].].].].].].].].].].].].              D.].].].].].].].].    r.y./ 0 0 t l r     ].].].].].].].].].",
"].].].].].].].].].].].].].!.Q.Q.Q.Q.Q.].].].].].].].].].].  d ) _ W M M M M h & d Q.].].].].].].].].",
"].].].].].].].].].].].].].].].].].].].].].].].].].].].].].    O O . . . . .       ].].].].].].].].].",
"].].].].].].].].].].].].].].].].].].].].].].].].].].].].].X.n.2.S.;.;.;.2.2.2.;.n.].].].].].].].].].",
"].].].].].].].].].].].].].].].].].].].].].].].].].].].].].].].].].].].].].].].].].].].].].].].].].].",
"].].].].].].].].].].].].].].].].].].].].].].].].].].].].].].].].].].].].].].].].].].].].].].].].].].",
"].].].].].].].].].].].].].].].].].].].].].].].].].].].].].].].].].].].].].].].].].].].].].].].].].].",
"].].].].].].].].].].].].].].].].].].].].].].].].].].].].].].].].].].].].].].].].].].].].].].].].].]."
};
