/* XPM */
static char *result[] = {
/* columns rows colors chars-per-pixel */
"50 50 184 2 ",
"   c #010000",
".  c #0C0502",
"X  c #0E0805",
"o  c #0F0B09",
"O  c #140200",
"+  c #1D0000",
"@  c #130B06",
"#  c #1A0D04",
"$  c #120E09",
"%  c #180F08",
"&  c #1D120A",
"*  c #11110A",
"=  c #191613",
"-  c #131618",
";  c #210F01",
":  c #260000",
">  c #23150C",
",  c #2A1708",
"<  c #2C1B0D",
"1  c #261509",
"2  c #321D00",
"3  c #381903",
"4  c #2C1D11",
"5  c #231F19",
"6  c #271813",
"7  c #311E11",
"8  c #3E2808",
"9  c #2F2116",
"0  c #2B201A",
"q  c #342215",
"w  c #382517",
"e  c #3A2619",
"r  c #3D291A",
"t  c #35261E",
"y  c #3C341A",
"u  c #091329",
"i  c #2C2524",
"p  c #3D2D22",
"a  c #3D322C",
"s  c #3F392E",
"d  c #262434",
"f  c #431E00",
"g  c #442200",
"h  c #442A00",
"j  c #4A2A00",
"k  c #492500",
"l  c #543600",
"z  c #563A00",
"x  c #593C01",
"c  c #52350F",
"v  c #422D1D",
"b  c #462A1B",
"n  c #45311F",
"m  c #4A331A",
"M  c #533A1E",
"N  c #422E21",
"B  c #463121",
"V  c #4C3524",
"C  c #4F3825",
"Z  c #4C3728",
"A  c #4D392B",
"S  c #533B27",
"D  c #553D29",
"F  c #583F2C",
"G  c #4A3935",
"H  c #523F3B",
"J  c #543F34",
"K  c #58412F",
"L  c #4E4539",
"P  c #564135",
"I  c #5D4432",
"U  c #544A3D",
"Y  c #564638",
"T  c #62422C",
"R  c #654736",
"E  c #644937",
"W  c #6A4F3D",
"Q  c #654A38",
"!  c #6C503E",
"~  c #6D5037",
"^  c #74553E",
"/  c #112D57",
"(  c #372F47",
")  c #393149",
"_  c #333B5E",
"`  c #0C2A60",
"'  c #203967",
"]  c #353C60",
"[  c #2D417F",
"{  c #3B497A",
"}  c #4D4C4C",
"|  c #534C4B",
" . c #484558",
".. c #595457",
"X. c #5C525B",
"o. c #6E5241",
"O. c #665D4E",
"+. c #625647",
"@. c #725441",
"#. c #7A5B46",
"$. c #735844",
"%. c #615557",
"&. c #6F6352",
"*. c #776C5B",
"=. c #7B695C",
"-. c #7B705D",
";. c #4D4761",
":. c #4E4862",
">. c #4A4A6C",
",. c #424C7A",
"<. c #4A517C",
"1. c #595E73",
"2. c #6E6E6E",
"3. c #7E7361",
"4. c #7A7678",
"5. c #82614B",
"6. c #8C6A52",
"7. c #876B55",
"8. c #926B53",
"9. c #967259",
"0. c #9B755B",
"q. c #A47A5C",
"w. c #847469",
"e. c #827771",
"r. c #827871",
"t. c #A57D62",
"y. c #A97E62",
"u. c #93846E",
"i. c #9A846D",
"p. c #948771",
"a. c #9E9079",
"s. c #A38166",
"d. c #AA8165",
"f. c #AE8568",
"g. c #AA896E",
"h. c #A2876E",
"j. c #B08669",
"k. c #AA8970",
"l. c #A1937B",
"z. c #AE9378",
"x. c #B3977D",
"c. c #B5987D",
"v. c #274388",
"b. c #33599C",
"n. c #3B5896",
"m. c #365CA2",
"M. c #3662AE",
"N. c #3C63AD",
"B. c #3A66B3",
"V. c #3867B6",
"C. c #45558A",
"Z. c #7F7E8C",
"A. c #6D7698",
"S. c #737B95",
"D. c #737D9C",
"F. c #787C93",
"G. c #8E7F84",
"H. c #7A8199",
"J. c #8B8589",
"K. c #908187",
"L. c #85899C",
"P. c #949393",
"I. c #AA9C83",
"U. c #B49D82",
"Y. c #B4A187",
"T. c #B9A68B",
"R. c #BAA98F",
"E. c #B8A589",
"W. c #BDAD92",
"Q. c #BFB095",
"!. c #8B8FA1",
"~. c #8E92A4",
"^. c #8B92AA",
"/. c #9C9EAB",
"(. c #969CB2",
"). c #999FB4",
"_. c #9AA1B8",
"`. c #ABADB6",
"'. c #AFB2BC",
"]. c #C0AF94",
"[. c #C1B195",
"{. c #C4B599",
"}. c #C9B89B",
"|. c None",
/* pixels */
"|.|.|.|.|.|.|.|.|.|.|.|.|.|.|.|.|.|.|.|.|.|.|.|.|.|.|.|.|.|.|.|.|.|.|.|.|.|.|.|.|.|.|.|.|.|.|.|.|.|.",
"|.|.|.|.|.|.|.|.|.|.|.|.|.|.                    |.|.|.          |.|.|.|.|.|.|.|.|.|.|.|.|.|.|.|.|.|.",
"|.|.|.|.|.|.|.|.|.|.|.|.|.|.    . % % % % @ @ X |.|.|.% & @     |.|.|.|.|.|.|.|.|.|.|.|.|.|.|.|.|.|.",
"|.|.|.|.|.|.|.|.|.|.|.|.|.|.    e S S S S V e r >   % C S r               |.|.|.|.|.|.|.|.|.|.|.|.|.",
"|.|.|.|.|.|.|.|.|.|.|.|.|.|.    r D S S D V e r >   % S D r               |.|.|.|.|.|.|.|.|.|.|.|.|.",
"|.|.|.|.|.|.|.|.|.|.|.|.|.|.    % 1 > V S S C S v q e S D S V V V V V q e 6     |.|.|.|.|.|.|.|.|.|.",
"|.|.|.|.|.|.|.|.|.|.|.|.|.|.          V D S D D v e r S S S D D S D S e r >     |.|.|.|.|.|.|.|.|.|.",
"|.|.|.|.|.|.|.|.|.|.|.|.  @ q 9 e n v S S S S S V V V S S S S S S S C V V q     |.|.|.|.|.|.|.|.|.|.",
"|.|.|.|.|.|.|.|.|.|.|.    . e e m D D S S S S S D D S S S S S S S D S S D q     |.|.|.|.|.|.|.|.|.|.",
"|.|.|.|.|.|.|.|.|.|.|.> 6 4 n B C S S S S S S S C n V S S S S S S S S S D r > 6 |.|.|.|.|.|.|.|.|.|.",
"|.|.|.|.|.|.|.|.|.    q r v D D S D S S D D S D v w r S S S S S S S S S D B e e X     |.|.|.|.|.|.|.",
"|.|.|.|.|.|.|.|.|.    w v n S S S S S C C C C C n r v V C S D D S S S S D m v v .     |.|.|.|.|.|.|.",
"|.|.|.|.|.|.|.|.|.    B D S S S S S D v e e q q w q q 7 7 v S C S S S S S S D C @     |.|.|.|.|.|.|.",
"|.|.|.|.|.|.|.|.|.    n D S S S S S C v e v Z Z Z Z Z V Z D I T S S S S S S D S @     |.|.|.|.|.|.|.",
"|.|.|.|.|.|.|.|.|..   B D S S S D S S b < Q t.t.t.q.t.t.t.t.t.t.I q v S S S D C @     |.|.|.|.|.|.|.",
"|.|.|.|.|.|.|.|.|.    B D S S S S S S v ; Q y.t.t.t.t.t.t.t.t.t.I ; v D S S S C @   . |.|.|.|.|.|.|.",
"|.|.|.|.|.|.|.|.|.    n D S S S Z v v 6.9.9.d.t.t.s.t.t.t.t.t.t.9.0.6.r v V S C @     |.|.|.|.|.|.|.",
"|.|.|.|.|.|.|.|.|.    V D S S D b # 1 q.f.d.q.q.q.q.q.q.t.t.d.t.d.d.9.7 e V K S @     |.|.|.|.|.|.|.",
"|.|.|.|.|.|.|.|.|.    e n n D V ^ 8.6.@.E 7.Y.c.U.U.U.U.Y.i.E o.0.f.9.e v e w q |.|.|.|.|.|.|.|.|.|.",
"|.|.|.|.|.|.|.|.|.    q r b D n 5.y.t.N   O.{.Q.W.[.W.Q.{.p.    8.q.8.O , O     |.|.|.|.|.|.|.|.|.|.",
"|.|.|.|.|.|.|.|.|.  |.4 4 w D m 7.x.z.Y   &.[.R.W.R.W.R.[.p.  4 h.U.h.@.#.A   X |.|.|.|.|.|.|.|.|.|.",
"|.|.|.|.|.|.|.|.|.|.|.    $ C 3 u.{.W.L   O.[.Q.W.W.W.W.[.p.    I.{.T.y.f.o.  @ |.|.|.|.|.|.|.|.|.|.",
"|.|.|.|.|.|.|.|.|.|.|..   6 W T i.Q.W.*.U w.[.R.W.W.W.R.[.a.| +.Y.Q.Y.q.d.!   @ |.|.|.|.|.|.|.|.|.|.",
"|.|.|.|.|.|.|.|.|.|.|.X   N y.q.x.Q.W.W.W.W.R.Q.W.W.W.W.W.W.].[.W.Q.E.t.d.o.  @ |.|.|.|.|.|.|.|.|.|.",
"|.|.|.|.|.|.|.|.|.|.|.X   p q.0.z.W.W.W.W.W.W.W.W.W.W.W.W.W.W.W.W.W.U.0.t.W   $ |.|.|.|.|.|.|.|.|.|.",
"|.|.|.|.|.|.|.|.|.|.|.    % Z r 5.d.t.T.W.W.W.W.W.W.W.W.W.W.W.W.k.y.0.N Z 4     |.|.|.|.|.|.|.|.|.|.",
"|.|.|.|.|.|.|.|.|.|.|.    @ e ; #.f.t.R.Q.W.].W.W.W.Q.W.W.W.W.].g.y.9.< r >     |.|.|.|.|.|.|.|.|.|.",
"|.|.|.|.|.|.|.|.|.|.|.|.|.|.& . Z E I s.k.g.k.j.g.g.k.k.k.g.g.g.$.I F @ & |.|.|.|.|.|.|.|.|.|.|.|.|.",
"|.|.|.|.|.|.|.|.|.|.|.|.|.|.    & 7 < 0.y.q.q.q.q.q.q.q.q.q.y.d.F # <     |.|.|.|.|.|.|.|.|.|.|.|.|.",
"|.|.|.|.|.|.|.|.|.|.|.|.5 5 = * 9 r r @.^ =.K.G.e.G.G.G.K.w.^ #.Z r e @ $ |.|.|.|.|.|.|.|.|.|.|.|.|.",
"|.|.|.|.|.|.|.|.|.|.|.          . v r 4 O  .H.F.F.D.S.S.D.1.O 6 w r 4     |.|.|.|.|.|.|.|.|.|.|.|.|.",
"|.|.|.|.|.|.|.|.|.|.|.*.3.-.=.-.+.7 r B h X.H.F.L.~.!.!.^.4.f V v w V W @.I |.|.|.|.|.|.|.|.|.|.|.|.",
"|.|.|.|.|.|.|.|.|.$   I.}.[.[.}.p.O p D c X.F.F./.`.`.`.'.J.k F N , E f.j.^   @ |.|.|.|.|.|.|.|.|.|.",
"|.|.|.|.|.|.|.|.|.o   l.Q.R.W.[.u.: N D c X.D.A.^.).(.(.).Z.j J Z 7 R t.s.!   @ |.|.|.|.|.|.|.|.|.|.",
"|.|.|.|.|.|.|.|.|.o   l.Q.Q.W.[.p.8 D S l :.B.B.M.M.M.M.B.C.l S C m W y.d.!   @ |.|.|.|.|.|.|.|.|.|.",
"|.|.|.|.|.|.|.|.|.*   l.Q.T.T.W.t.b J J S >.B.N.N.N.B.N.B.C.M J J G o.t.t.o.  @ |.|.|.|.|.|.|.|.|.|.",
"|.|.|.|.|.|.|.|.|.|.|.s s a s y ] v.v.N.N.N.N.N.N.B.N.N.B.N.N.N.m.N.n.2 t |.|.|.|.|.|.|.|.|.|.|.|.|.",
"|.|.|.|.|.|.|.|.|.|.|.          ` v.v.m.B.B.B.B.B.B.B.N.N.N.B.B.B.B.b.    |.|.|.|.|.|.|.|.|.|.|.|.|.",
"|.|.|.|.|.|.|.|.|.|.|.|.|.|.= * d ) (  .;.;.:.:._ / ' N.B.N.N.B.N.B.m.. o |.|.|.|.|.|.|.|.|.|.|.|.|.",
"|.|.|.|.|.|.|.|.|.|.|.|.|.|.    . h g l x x l x 2   u B.B.B.V.B.B.V.m.    |.|.|.|.|.|.|.|.|.|.|.|.|.",
"|.|.|.|.|.|.|.|.|.|.|.|.|.|.|.|.P.> i a a a a a i - d { { ,.<.<.<.C.>.8 v 9 |.|.|.|.|.|.|.|.|.|.|.|.",
"|.|.|.|.|.|.|.|.|.|.|.|.|.|.|.|.|.                    3 3 j l l l l l S K q     |.|.|.|.|.|.|.|.|.|.",
"|.|.|.|.|.|.|.|.|.|.|.|.|.|.|.|.|.|.P.P.P.P.P.P.P.P.P.| 6 G P P P P P K K p   } |.|.|.|.|.|.|.|.|.|.",
"|.|.|.|.|.|.|.|.|.|.|.|.|.|.|.|.|.|.|.|.|.|.|.|.|.|.|.}   : k f f f f g g +   ..|.|.|.|.|.|.|.|.|.|.",
"|.|.|.|.|.|.|.|.|.|.|.|.|.|.|.|.|.|.|.|.|.|.|.|.|.|.|.J.2.4.e.r.e.e.r.e.e.4.2.|.|.|.|.|.|.|.|.|.|.|.",
"|.|.|.|.|.|.|.|.|.|.|.|.|.|.|.|.|.|.|.|.|.|.|.|.|.|.|.|.|.|.|.|.|.|.|.|.|.|.|.|.|.|.|.|.|.|.|.|.|.|.",
"|.|.|.|.|.|.|.|.|.|.|.|.|.|.|.|.|.|.|.|.|.|.|.|.|.|.|.|.|.|.|.|.|.|.|.|.|.|.|.|.|.|.|.|.|.|.|.|.|.|.",
"|.|.|.|.|.|.|.|.|.|.|.|.|.|.|.|.|.|.|.|.|.|.|.|.|.|.|.|.|.|.|.|.|.|.|.|.|.|.|.|.|.|.|.|.|.|.|.|.|.|.",
"|.|.|.|.|.|.|.|.|.|.|.|.|.|.|.|.|.|.|.|.|.|.|.|.|.|.|.|.|.|.|.|.|.|.|.|.|.|.|.|.|.|.|.|.|.|.|.|.|.|.",
"|.|.|.|.|.|.|.|.|.|.|.|.|.|.|.|.|.|.|.|.|.|.|.|.|.|.|.|.|.|.|.|.|.|.|.|.|.|.|.|.|.|.|.|.|.|.|.|.|.|."
};
