/* XPM */
static char *result[] = {
/* columns rows colors chars-per-pixel */
"50 50 179 2 ",
"   c #010000",
".  c #0B0301",
"X  c #01020A",
"o  c #0F0803",
"O  c #150000",
"+  c #140A05",
"@  c #1A0C04",
"#  c #1D120A",
"$  c #1C1204",
"%  c #000019",
"&  c #1B1B1B",
"*  c #1B1615",
"=  c #2B0200",
"-  c #210F02",
";  c #230000",
":  c #22160C",
">  c #291709",
",  c #2B1A0E",
"<  c #261709",
"1  c #3D1400",
"2  c #3A1E00",
"3  c #301D0F",
"4  c #351700",
"5  c #2D1D12",
"6  c #221F1B",
"7  c #251A15",
"8  c #311F13",
"9  c #371F1E",
"0  c #262000",
"q  c #3D2300",
"w  c #26231C",
"e  c #29231F",
"r  c #2F2013",
"t  c #342215",
"y  c #382516",
"u  c #3D2914",
"i  c #352519",
"p  c #3A2619",
"a  c #3D291B",
"s  c #000032",
"d  c #141A35",
"f  c #262522",
"g  c #282628",
"h  c #3D2A23",
"j  c #342528",
"k  c #3D342A",
"l  c #442A03",
"z  c #492D13",
"x  c #432E1E",
"c  c #45301F",
"v  c #49331E",
"b  c #583E1C",
"n  c #422F23",
"m  c #463121",
"M  c #4B3523",
"N  c #4F3825",
"B  c #43342B",
"V  c #4E392A",
"C  c #44382E",
"Z  c #533B27",
"A  c #553D28",
"S  c #583F2B",
"D  c #503722",
"F  c #473A33",
"G  c #5C422E",
"H  c #4B4136",
"J  c #5D4533",
"K  c #564839",
"L  c #614635",
"P  c #664A36",
"I  c #6A4E3B",
"U  c #664B38",
"Y  c #66513E",
"T  c #72543F",
"R  c #0E1D42",
"E  c #152449",
"W  c #392E41",
"Q  c #38304A",
"!  c #3F3C57",
"~  c #173067",
"^  c #263467",
"/  c #2F396D",
"(  c #303D6B",
")  c #2E3B71",
"_  c #323D70",
"`  c #3C4065",
"'  c #3C436B",
"]  c #5C5345",
"[  c #695646",
"{  c #725440",
"}  c #765945",
"|  c #795B46",
" . c #7C5F4A",
".. c #796755",
"X. c #404B79",
"o. c #686777",
"O. c #85644C",
"+. c #8E6C55",
"@. c #866B56",
"#. c #926D55",
"$. c #967259",
"%. c #9B755C",
"&. c #9F785E",
"*. c #A57857",
"=. c #A4795D",
"-. c #837865",
";. c #9A7A6A",
":. c #987A62",
">. c #9C7F73",
",. c #A57D62",
"<. c #AA7E62",
"1. c #8F826D",
"2. c #9D8075",
"3. c #AA8165",
"4. c #AD866A",
"5. c #AC896E",
"6. c #B1866A",
"7. c #AB8E74",
"8. c #AD9176",
"9. c #A2937C",
"0. c #AD977B",
"q. c #B0967C",
"w. c #253E81",
"e. c #274285",
"r. c #294385",
"t. c #25448B",
"y. c #2A468A",
"u. c #3A4F84",
"i. c #374E84",
"p. c #3A5696",
"a. c #0051B0",
"s. c #1F5EB4",
"d. c #295AA9",
"f. c #3A5DA3",
"g. c #385FA9",
"h. c #245FB3",
"j. c #3D61A5",
"k. c #3A61AB",
"l. c #3663AE",
"z. c #2961B4",
"x. c #3162B1",
"c. c #3D68B6",
"v. c #5D6C9A",
"b. c #7B7F95",
"n. c #757C94",
"m. c #4266AE",
"M. c #767FA6",
"N. c #677DB2",
"B. c #3C6FC3",
"V. c #7B829B",
"C. c #6F80AF",
"Z. c #7283B2",
"A. c #88878C",
"S. c #8C8992",
"D. c #9C969C",
"F. c #97969C",
"G. c #AA9B82",
"H. c #B39D83",
"J. c #A19A9C",
"K. c #B6A286",
"L. c #B5A58B",
"P. c #BBAB8F",
"I. c #B8A68C",
"U. c #BDAD92",
"Y. c #BFB095",
"T. c #8A8BA2",
"R. c #9795A3",
"E. c #9FA2AF",
"W. c #9EA3B3",
"Q. c #A7A4A2",
"!. c #B4AEA8",
"~. c #AAACB5",
"^. c #A2A6B3",
"/. c #AFB2BB",
"(. c #C6B38E",
"). c #C1B195",
"_. c #C5B599",
"`. c #C8B694",
"'. c None",
/* pixels */
"'.'.'.'.'.'.'.'.'.'.'.'.'.'.'.'.'.'.'.          '.'.'.                    '.'.'.'.'.'.'.'.'.'.'.'.'.",
"'.'.'.'.'.'.'.'.'.'.'.'.'.'.'.'.'.'.'.          '.'.'.                    '.'.'.'.'.'.'.'.'.'.'.'.'.",
"'.'.'.'.'.'.'.'.'.'.'.'.'.'.o . . o .     5 M m :   # t 8 x m c c c r     '.'.'.'.'.'.'.'.'.'.'.'.'.",
"'.'.'.'.'.'.'.'.'.'.'.'.'.'.              i G Z #   # a y N S A G G a   . '.'.'.'.'.'.'.'.'.'.'.'.'.",
"'.'.'.'.'.'.'.'.'.'.'.'.'.'.p y i p i 5 # a A Z t # t m c N A N a m 5   . '.'.'.'.'.'.'.'.'.'.'.'.'.",
"'.'.'.'.'.'.'.'.'.'.'.    : G S A A A a p M A Z x p m A A D A N           '.'.'.'.'.'.'.'.'.'.'.'.'.",
"'.'.'.'.'.'.'.'.'.'.'.: # t Z Z Z Z D a a m A Z x a m Z Z Z A N : : # + + '.'.'.'.'.'.'.'.'.'.'.'.'.",
"'.'.'.'.'.'.'.'.'.    M A N Z Z A Z A A Z Z Z Z Z Z Z Z Z Z A D D Z M p p o     '.'.'.'.'.'.'.'.'.'.",
"'.'.'.'.'.'.'.'.'.    M A Z Z Z A D A A A Z Z Z Z Z Z Z Z A Z Z Z A M p p +     '.'.'.'.'.'.'.'.'.'.",
"'.'.'.'.'.'.    i N M D Z Z Z Z A A Z D Z Z Z Z Z Z Z Z Z Z Z Z Z Z N N V y y 5   . '.'.'.'.'.'.'.'.",
"'.'.'.'.'.'..   t G A Z Z Z Z Z Z A Z A A Z A Z Z Z Z A Z Z A A Z Z Z A Z x p t     '.'.'.'.'.'.'.'.",
"'.'.'.'.'.'.    t A N Z Z Z A S V M N m c N Z Z Z Z Z Z A N m m Z A D N N a p t     '.'.'.'.'.'.'.'.",
"'.'.'.'.'.'.    t A A A A V v v t - > y i m Z Z Z A Z A Z x y a A A Z A Z a a 8     '.'.'.'.'.'.'.'.",
"'.'.'.'.'.'.# + i A Z D M G T T I I P x p M Z Z Z Z Z D A n p x N N N N N a a 8     '.'.'.'.'.'.'.'.",
"'.'.'.'.  . i a m A A a @ L 3.,.,.3.,.a , m A A Z Z A A S x y p p p p p p p a t     '.'.'.'.'.'.'.'.",
"'.'.'.'.  . i p c D Z N a U ,.,.,.,.&.V n N Z D Z Z D A A n p p a p a a a a a 8     '.'.'.'.'.'.'.'.",
"'.'.'.'..   p p a x y #.:.&.,.,.,.,.,.&.,. .8 x D A Z Z Z m a a a p m A D a a 8     '.'.'.'.'.'.'.'.",
"'.'.'.'.  . y p p p 8 %.6.,.,.=.=.=.,.3.6.O.  3 N A Z Z A a > 8 p i m A D x a 8     '.'.'.'.'.'.'.'.",
"'.'.'.'.  . i a y : # J L ..K.K.H.K.0.[ L | #.+.L D D M x | #.O.N M D Z Z a a 8     '.'.'.'.'.'.'.'.",
"'.'.'.      p x 5         ] Y.Y.U.).I.6   { 3.<.P D N -   #.4.=.A A A Z A a a t     '.'.'.'.'.'.'.'.",
"'.'.'.'.  X 5 t :     i O [ Y.U.U.U.I.C   ..q.8.Y x J } { $.,.%.A Z N M M a a r     '.'.'.'.'.'.'.'.",
"'.'.'.'.'.'.              ] Y.U.U.Y.I.7   -._.U.K   P 3.3.,.3.%.A A m p p a a t     '.'.'.'.'.'.'.'.",
"'.'.'.'.'.'.    .     H H ..Y.U.U.U.I.] k 1.).U...K  .,.,.,.,.%.D D m y a i p 5     '.'.'.'.'.'.'.'.",
"'.'.'.'.'.'.'.'.'.    G.U.U.U.U.U.U.U.U.U.U.U.U.U.U.K.=.,.,.3.%.a a a a y +     '.'.'.'.'.'.'.'.'.'.",
"'.'.'.'.'.'.'.'.'..   G.).Y.U.U.U.U.U.U.U.U.U.U.U.Y.K.=.,.,.3.%.a p a a p o     '.'.'.'.'.'.'.'.'.'.",
"'.'.'.'.'.'.'.'.'.    :.5.8.U.U.U.U.U.U.U.U.U.U.7.5.:.G P J L J a p 5 + # '.'.'.'.'.'.'.'.'.'.'.'.'.",
"'.'.'.'.'.'.'.'.'..   $.<.5.).Y.U.Y.U.).).U.U.).4.<.#.. , , , 3 p x ,     '.'.'.'.'.'.'.'.'.'.'.'.'.",
"'.'.'.'.'.'.'.'.'.'.'.} } @.q.q.q.H.q.q.q.q.q.q.@.O.} m D n x a , 5 : '.'.'.'.'.'.'.'.'.'.'.'.'.'.'.",
"'.'.'.'.'.'.'.'.'.'.'.    B <.,.*.*.*.=.=.=.,.,.G u N A Z x p y     '.'.'.'.'.'.'.'.'.'.'.'.'.'.'.'.",
"'.'.'.'.'.'.'.'.'.'.'.*   V $.$.;.>.>.>.>.;.#.%.P A G D Z v p p .   '.'.'.'.'.'.'.'.'.'.'.'.'.'.'.'.",
"'.'.'.'.'.'.'.'.'.'.'.    + i = o.b.n.n.n.o.l M N v N D A c p p     '.'.'.'.'.'.'.'.'.'.'.'.'.'.'.'.",
"'.'.'.'.'.'.'.'.'.'.'.    # h 4 o.V.b.b.S.o.b J J J J D A x p y     '.'.'.'.'.'.'.'.'.'.'.'.'.'.'.'.",
"'.'.'.'.'.'.'.'.'.'.'.    # k = A.^.^.^.E.Q.K.L.L.U.2.v Z m h i     '.'.'.'.'.'.'.'.'.'.'.'.'.'.'.'.",
"'.'.'.'.'.'.'.'.'.'.'.    $ l = S./.~.~.~.!.(.).U.).0.z G l q 2     '.'.'.'.'.'.'.'.'.'.'.'.'.'.'.'.",
"'.'.'.'.'.'.'.'.'.'.'.X X d _ ^ v.Z.Z.Z.N.R.P.U.U.Y.9.i v X.p.i.X   '.'.'.'.'.'.'.'.'.'.'.'.'.'.'.'.",
"'.'.'.'.'.'.'.'.'.'.'.X   R t.w.d.h.h.d.a.T.(.).Y.`.0.; 1 p.B.l.X   '.'.'.'.'.'.'.'.'.'.'.'.'.'.'.'.",
"'.'.'.'.'.'.'.'.'.'.'.X   R r.w.p.g.f.m.x.M.J.D.D.D.S.( ' u.p.i.7 < * '.'.'.'.'.'.'.'.'.'.'.'.'.'.'.",
"'.'.'.'.'.'.'.'.'.'.'.X   R r.r.t.) w.x.c.x.s.h.z.s.z.c.c.' 1 q p x 5     '.'.'.'.'.'.'.'.'.'.'.'.'.",
"'.'.'.'.'.'.'.'.'.'.'.X   R r.e.e.e.y.g.k.g.j.j.j.j.j.f.k.` q h p x >   . '.'.'.'.'.'.'.'.'.'.'.'.'.",
"'.'.'.'.'.'.'.'.'.'.'.X   R r.e.e.e.e.r.y.~   % % % % % % 5 a a p a 7     '.'.'.'.'.'.'.'.'.'.'.'.'.",
"'.'.'.'.'.'.'.'.'.'.'.X   R e.e.e.e.e.r.e.^ 0 f w w w w w a x p p a :     '.'.'.'.'.'.'.'.'.'.'.'.'.",
"'.'.'.'.'.'.'.'.'.    5 t j Q W / e.r.E s F.'.'.'.'.'.'.'.A.  f e e 6 & & '.'.'.'.'.'.'.'.'.'.'.'.'.",
"'.'.'.'.'.'.'.'.'.    y x p q q / e.e.    '.'.'.'.'.'.'.'.'.              '.'.'.'.'.'.'.'.'.'.'.'.'.",
"'.'.'.'.'.'.'.'.Q.g & k B B C B ! X.( g   '.'.'.'.'.'.'.'.'.'.'.'.'.'.'.'.'.'.'.'.'.'.'.'.'.'.'.'.'.",
"'.'.'.'.'.'.'.'.'.      . . . . . O .     '.'.'.'.'.'.'.'.'.'.'.'.'.'.'.'.'.'.'.'.'.'.'.'.'.'.'.'.'.",
"'.'.'.'.'.'.'.'.'.'.'.'.'.'.'.'.'.'.'.'.'.'.'.'.'.'.'.'.'.'.'.'.'.'.'.'.'.'.'.'.'.'.'.'.'.'.'.'.'.'.",
"'.'.'.'.'.'.'.'.'.'.'.'.'.'.'.'.'.'.'.'.'.'.'.'.'.'.'.'.'.'.'.'.'.'.'.'.'.'.'.'.'.'.'.'.'.'.'.'.'.'.",
"'.'.'.'.'.'.'.'.'.'.'.'.'.'.'.'.'.'.'.'.'.'.'.'.'.'.'.'.'.'.'.'.'.'.'.'.'.'.'.'.'.'.'.'.'.'.'.'.'.'.",
"'.'.'.'.'.'.'.'.'.'.'.'.'.'.'.'.'.'.'.'.'.'.'.'.'.'.'.'.'.'.'.'.'.'.'.'.'.'.'.'.'.'.'.'.'.'.'.'.'.'.",
"'.'.'.'.'.'.'.'.'.'.'.'.'.'.'.'.'.'.'.'.'.'.'.'.'.'.'.'.'.'.'.'.'.'.'.'.'.'.'.'.'.'.'.'.'.'.'.'.'.'."
};
