/* XPM */
static char *result[] = {
/* columns rows colors chars-per-pixel */
"50 50 124 2 ",
"   c #F70302",
".  c #F50A06",
"X  c #F30F09",
"o  c #ED1B0F",
"O  c #F2140C",
"+  c #F0190E",
"@  c #EF1D10",
"#  c #F11F11",
"$  c #ED2413",
"%  c #EA2A17",
"&  c #EB2E18",
"*  c #F12715",
"=  c #E5371D",
"-  c #EA311A",
";  c #E6381E",
":  c #E8391F",
">  c #E53D20",
",  c #E83E21",
"<  c #D24A26",
"1  c #DF4E29",
"2  c #DD532C",
"3  c #DC592F",
"4  c #DB5D31",
"5  c #E34324",
"6  c #E24926",
"7  c #E14B28",
"8  c #EE502A",
"9  c #E8582E",
"0  c #ED5D31",
"q  c #F15E31",
"w  c #D76736",
"e  c #D96133",
"r  c #D56E39",
"t  c #CA723B",
"y  c #D3733C",
"u  c #D3793F",
"i  c #DC783F",
"p  c #E46434",
"a  c #ED6234",
"s  c #E36836",
"d  c #E2743D",
"f  c #C97F42",
"g  c #D17C41",
"h  c #ED7A40",
"j  c #E3774B",
"k  c #A8934A",
"l  c #A59A4D",
"z  c #A99F51",
"x  c #9CAE58",
"c  c #96B35A",
"v  c #9AB65B",
"b  c #9EB95D",
"n  c #A2AD57",
"m  c #A2AF58",
"M  c #B1A554",
"N  c #BBA254",
"B  c #B0AA57",
"V  c #BFAE5A",
"C  c #A4B15A",
"Z  c #AFB45C",
"A  c #A1BB5F",
"S  c #BEB55E",
"D  c #BDB85F",
"F  c #A5BE61",
"G  c #ADB76E",
"H  c #ACB86F",
"J  c #BDB760",
"K  c #B3BE62",
"L  c #BDBC61",
"P  c #ABBB71",
"I  c #CE8445",
"U  c #CD8947",
"Y  c #CC8C49",
"T  c #D18144",
"R  c #DA8847",
"E  c #D28B49",
"W  c #DF8D4A",
"Q  c #CA944D",
"!  c #C7984F",
"~  c #C8994F",
"^  c #D2954E",
"/  c #D8964F",
"(  c #C69E52",
")  c #C99C52",
"_  c #C5A455",
"`  c #C2AC59",
"'  c #CAAF5B",
"]  c #DBA757",
"[  c #D2AF5B",
"{  c #C1B15C",
"}  c #CCB25D",
"|  c #C0BC5F",
" . c #E6A556",
".. c #EAA456",
"X. c #E1B35E",
"o. c #DEBB62",
"O. c #E8BE63",
"+. c #A7C062",
"@. c #ABC264",
"#. c #B1C767",
"$. c #BBC466",
"%. c #B4CA66",
"&. c #BBCC66",
"*. c #B9C768",
"=. c #B6CB69",
"-. c #B8CC6A",
";. c #BBD069",
":. c #BDCF71",
">. c #BED172",
",. c #C6C667",
"<. c #C9C466",
"1. c #C7CB6A",
"2. c #CDCD6B",
"3. c #C2D46E",
"4. c #CDD56E",
"5. c #C5D671",
"6. c #C7D870",
"7. c #CCDC72",
"8. c #C6D57D",
"9. c #C7D87F",
"0. c #CCDA85",
"q. c #CEDC88",
"w. c #D5D084",
"e. c #D2DF8D",
/* pixels */
"P P P P P H P P P P P H P P H P P P P P P P P P P P P P P P P P P P P P P P P P P P H H G G H G H H ",
";.;.;.;.;.;.;.;.;.-.;.;.;.;.;.;.;.;.;.%.;.;.;.;.;.;.;.;.;.;.;.;.;.-.;.;.;.-.-.;.&.&.,.| | | $.&.&.;.",
"=.=.=.=.=.=.=.-.=.=.=.-.-.-.=.=.-.-.-.-.-.=.=.=.#.=.-.=.=.=.=.=.=.=.=.=.-.-.-.-.$.D V ! ~ ( ` L $.-.",
"-.-.-.-.-.-.-.-.-.-.-.-.-.-.-.-.-.#.@.%.-.-.-.-.-.-.-.-.-.-.=.=.-.-.-.:.@.+.F $.L _ U y w y Y _ D &.",
"-.-.-.-.-.-.=.-.-.-.-.-.-.-.=.-.-.#.+.#.-.-.-.-.-.-.-.#.=.-.-.-.-.-.=.-.F c v K { U e : - ; e Y ` $.",
"-.-.-.-.-.-.+.=.-.-.-.-.=.F @.-.-.-.+.=.-.-.-.-.-.;.@.c +.-.-.-.-.-.-.F v b x Z ( y : + . o : y _ L ",
"-.-.-.-.-.#.@.-.-.-.-.-.=.F #.-.-.-.#.-.-.-.-.-.-.-.F c A @.-.-.-.-.#.F v v x B Q 4 % .   . & e ~ S ",
"-.-.-.-.y                 = #.  @ -.-.-.-.-.@   -.=.b             # #.b v v x M U 7 @ . . . % 3 Q D ",
"-.-.-.=.) 2 1 3 X   2 2 2 r =.  @ -.-.-.-.-.@   -.=.b   X < 2 2 2 4 =.b b v x M g 7 + .   . % 0 Y D ",
"-.=.#.-.-.#.#.-.@   =.=.-.-.-.  @ -.-.-.-.-.@   -.-.b   o c #.-.=.-.=.A c v x N g > O     . * 0 ^ S ",
"-.=.+.-.-.-.-.-.@   -.-.-.-.-.  @ -.-.=.-.-.@   -.#.A   o v #.-.-.-.-.F v b n ` g > O .   . % q / D ",
"-.-.@.%.-.-.-.-.@   -.=.-.-.-.  @ -.-.-.-.-.#   -.=.b   o v #.-.-.-.-.=.#.#.K _ g > O .   . $ a Q J ",
"-.-.@.#.-.#.-.-.#   -.-.-.-.-.  @ -.-.-.-.-.@   -.-.F   o v #.-.-.-.-.-.-.-.L N r > X     X % 0 Q L ",
"-.-.@.%.-.@.-.-.@   -.-.-.-.-.                  =.-.@.            2 -.-.=.=.K k g > O     . $ 4 Q D ",
"-.-.-.-.#.@.;.-.@   -.-.-.-.-.  X 2 2 2 2 2 X   -.-.#.  X r y r r ~ F F #.*.C k t > +   . . % 4 Q D ",
"-.-.-.-.@.#.-.-.@   #.-.-.=.-.  # -.-.-.-.#.@   -.=.=.  @ =.#.#.-.-.F c F =.m k t > O .   . $ 4 Q S ",
"-.-.-.-.@.@.-.=.@   +.@.-.-.=.  o -.-.-.-.-.o   -.-.-.  o #.c A -.#.b b A #.m l f > o .   . @ 2 Y S ",
"-.-.-.-.-.=.-.-.@   @.#.-.-.=.  # -.=.-.-.-.@   -.-.-.  # F v v =.#.v c b =.F l f > @     . # 1 Y { ",
"-.-.-.-.-.-.-.-.@   @.=.-.-.-.  @ -.-.-.=.-.#   -.=.-.  X < < < 1 2 n v b -.K z I 7 o .   . # 7 T { ",
"-.-.-.-.-.-.-.-.@   -.-.-.-.-.  @ -.-.-.-.-.#   -.-.-.              M c F -.*.{ Y 1 @ .     O 5 I ` ",
"-.-.-.-.-.-.-.-.-.-.-.-.-.-.-.-.-.-.#.#.#.-.-.-.=.-.-.-.-.F v v =.-.#.F #.-.*.| Y 2 @ X   . o 5 g ` ",
"-.-.-.-.-.-.=.-.-.=.-.-.-.-.-.-.-.-.#.F #.-.-.-.-.-.-.=.-.#.v F -.-.-.-.-.-.*.{ Q 3 $ .     o > g ` ",
"-.-.-.-.-.-.-.-.-.=.-.-.-.-.-.-.-.-.=.F -.-.-.-.-.-.-.-.-.-.=.=.-.-.-.-.-.-.*.J Q 3 $ .     o 5 g _ ",
"-.-.-.-.-.-.-.-.-.-.-.-.-.-.=.-.-.-.-.#.-.-.-.-.-.-.-.-.-.-.-.-.-.-.-.-.-.-.-.L Y 3 $ X . . O > g ` ",
"-.-.-.-.-.-.-.-.-.-.-.-.-.-.-.-.-.-.-.-.-.-.-.-.-.-.-.-.-.-.-.-.-.-.-.-.-.-.*.{ Q 2 $ .     O 5 g ` ",
"-.-.-.-.-.-.-.-.-.-.-.-.-.-.-.-.-.-.-.-.-.-.-.-.-.-.-.-.-.-.-.-.-.-.-.-.-.-.*.{ Y 2 $ .   . O 5 g ` ",
"-.-.-.-.-.-.-.-.=.-.-.-.-.-.-.-.-.-.-.-.-.-.-.-.-.-.-.-.-.-.-.-.-.-.-.-.-.-.*.J Y 2 @ . .   + 7 T { ",
"-.-.-.-.-.=.-.-.-.-.-.-.-.-.-.-.=.-.-.-.-.-.-.-.=.-.-.-.-.-.-.-.-.-.-.-.-.-.*.{ U 2 $ .   . o 7 I { ",
"-.-.-.-.-.-.            # -.%.    _ -.-.-.-.=   -.-.-.% X     X % 4 L -.-.-.*.{ Y 7 @ .     $ 7 Y { ",
"-.-.-.-.-.-.  X 2 2 2 2 4 -.:.    = -.-.-.-.=   -.-.-.  O 4 r 4 %   O ~ -.;.*.{ Y 2 $ .   . $ 2 Y S ",
"-.-.-.-.-.-.  @ -.-.-.-.=.:.e.  X   Q -.-.-.=   -.=.3.  * -.=.-.-.~ X X ,.7.4.| Q 3 % .   X & e ) S ",
"-.-.-.-.#.-.  @ -.-.-.-.-.=.q.  5 X % -.-.-.;   -.-.3.  # 3.=.-.-.-.r   p 7.4.<.( y > O . o 5 u _ L ",
"-.-.-.-.-.-.  @ -.-.-.-.-.%.8.  ; g   g :.-.=   -.-.7.  # 3.-.-.-.-.L   & 7.4.2.} U 4 > - 5 e Y { $.",
"-.-.#.0.8.%.  @ -.-.-.-.-.-.-.  ; -.# X w.8.=   =.-.4.  $ 5.=.-.-.-.-.@ X 7.7.4.<._ Y y d i Y ` L *.",
"-.=.-.0.:.&.            2 -.-.  > -.I   j 8.=   -.-.3.  # 1.=.-.-.-.=.@   7.7.7.1.S ` )  .] ` L $.-.",
"-.-.>.0.%.-.  O r r r r Q -.-.  = -.-.%   L =   -.=.3.  * -.-.-.-.-.=.O # 7.7.7.3.$.D } O.o.D $.*.-.",
"%.0.8.0.%.-.  + -.-.-.=.-.-.=.  ; -.-.Q   4 =   -.-.-.  o -.-.-.-.-._   6 7.7.7.-.L S ` X.[ V L $.-.",
"%.8.0.0.=.-.  o -.-.-.-.-.-.-.  > -.-.-.;   =   -.-.=.  @ -.5.;.=.-.2   E 3.3.3.$.S _ Y R E ! ` L *.",
"%.-.e.0.=.-.  o -.-.-.-.-.-.-.  = -.-.-.S       -.-.-.  @ ;.7.6.=.r   % -.-.-.$.D _ I e 1 2 y Q ` $.",
"%.-.e.-.-.q.  X 2 2 2 2 2 L -.  = -.-.-.-.2     -.-.-.  O d d s @   % 2.6.-.-.$.| Q w = $ $ 7 g _ L ",
"-.:.q.%.-.q.              { -.  ; -.-.-.-.L O   =.-.=.@       # ; U 3.7.7.-.-.$.` Y 4 $ . O , y _ L ",
"-.-.q.=.%.8.9.%.-.%.0.e.:.%.-.-.-.-.=.-.-.-.-.-.-.-.=.=.;.7.7.7.;.=.6.7.7.3.=.$.S Q w = @ $ 8 g _ L ",
"-.-.:.=.%.8.8.%.-.&.8.q.=.-.-.-.-.-.-.-.-.-.-.-.-.-.5.5.-.7.7.7.-.-.3.7.7.3.$.$.L _ I e 7 9 h / V L ",
"-.-.&.-.%.9.8.%.-.-.:.8.%.-.-.-.-.-.-.-.-.-.-.-.-.-.7.6.=.5.6.5.=.-.3.7.7.3.-.-.$.| ( Y I W ..' L $.",
"-.-.-.-.%.9.8.%.-.-.-.=.-.-.-.-.-.-.-.-.=.-.-.-.=.;.7.7.-.-.-.-.-.-.-.7.7.-.-.-.*.$.L ` ` ' O.L $.-.",
"-.-.-.-.=.:.;.-.-.-.-.-.-.=.-.-.-.-.-.-.-.-.-.-.=.5.7.7.-.=.-.-.-.-.-.3.-.-.-.-.-.*.$.$.L $.1.#.=.=.",
"-.-.-.-.-.=.=.-.-.-.-.-.=.-.-.-.-.-.-.-.-.-.-.-.=.3.7.7.-.-.-.-.-.-.-.=.=.-.-.-.-.-.-.*.*.*.=.-.-.-.",
"-.-.-.-.-.-.-.-.-.-.-.-.-.-.-.-.-.-.-.-.-.-.-.-.-.-.7.5.=.=.-.-.-.-.-.-.-.-.-.-.-.-.-.=.-.-.-.-.-.-.",
"-.-.-.-.-.-.-.-.-.-.=.-.-.-.-.=.-.-.-.-.-.-.-.-.-.-.3.;.=.-.-.-.-.-.-.-.-.-.-.-.-.-.-.-.-.-.-.-.-.-.",
"-.-.-.-.=.-.-.-.-.-.-.-.-.-.-.-.-.-.-.-.-.=.-.-.-.-.=.=.-.-.-.-.-.-.-.=.-.-.-.-.-.-.-.-.-.-.-.-.-.-."
};
